<svg width="1440" height="863" viewBox="0 0 1440 863" fill="none" xmlns="http://www.w3.org/2000/svg">
<mask id="mask0_105_4397" style="mask-type:alpha" maskUnits="userSpaceOnUse" x="-1" y="0" width="1441" height="690">
<rect x="-0.375" y="0.635742" width="1440" height="689" fill="#D9D9D9"/>
</mask>
<g mask="url(#mask0_105_4397)">
<mask id="mask1_105_4397" style="mask-type:alpha" maskUnits="userSpaceOnUse" x="1" y="0" width="1441" height="724">
<rect x="1.125" y="0.635742" width="1440" height="723" fill="#D9D9D9"/>
</mask>
<g mask="url(#mask1_105_4397)">
<ellipse cx="13.5" cy="13" rx="13.5" ry="13" transform="matrix(4.38475e-08 1 1 -4.35757e-08 739.375 210.636)" fill="#EC7D79"/>
</g>
<path d="M108.5 808.636L215.5 808.636C221.023 808.636 225.5 804.159 225.5 798.636L225.5 572.636C225.5 567.113 221.023 562.636 215.5 562.636L108.5 562.636C102.977 562.636 98.5 567.113 98.5 572.636L98.5 798.636C98.5 804.159 102.977 808.636 108.5 808.636Z" fill="#F6C050"/>
<path d="M1246.56 253.724C1283.93 257.159 1311.43 290.235 1308 327.602L1240.34 321.382L1246.56 253.724Z" fill="#48C287"/>
<ellipse cx="13.5" cy="13" rx="13.5" ry="13" transform="matrix(4.38475e-08 1 1 -4.35757e-08 357.5 173.636)" fill="#EC7D79"/>
<ellipse cx="13.5" cy="13" rx="13.5" ry="13" transform="matrix(4.38475e-08 1 1 -4.35757e-08 1329.5 492.636)" fill="#4386D1"/>
</g>
<g clip-path="url(#clip0_105_4397)">
<path fill-rule="evenodd" clip-rule="evenodd" d="M1163.43 306.275C1163.01 306.312 1162.6 306.331 1162.19 306.332C1161.57 306.334 1160.96 306.253 1160.35 306.222C1160.09 306.209 1159.41 306.186 1159.31 306.165C1158.47 305.984 1158.4 305.29 1158.39 305.088C1158.39 304.99 1158.36 303.988 1159.47 303.863C1160.84 303.708 1162.2 303.733 1163.53 303.933C1164.67 303.806 1165.83 303.525 1166.88 303.117C1171.09 301.493 1171.78 297.808 1172.07 293.779C1172.11 293.159 1172.64 292.684 1173.25 292.701C1173.88 292.718 1174.38 293.222 1174.38 293.843C1174.42 296.111 1175.9 300.249 1177.67 301.781C1178.04 302.101 1178.98 302.345 1179.89 302.642C1181.16 303.056 1182.4 303.528 1182.91 303.984C1182.99 304.053 1183.78 304.875 1183.88 305.11C1184.14 305.675 1183.93 306.093 1183.75 306.327C1183.58 306.56 1183.24 306.813 1182.72 306.883C1182.17 306.956 1181.08 306.769 1180.84 306.768C1179.98 306.765 1178.29 306.801 1176.82 307.035C1176.02 307.16 1175.29 307.304 1174.91 307.607C1173.49 308.731 1173.53 310.714 1173.61 312.388C1173.62 312.58 1173.63 312.772 1173.64 312.964C1173.78 313.654 1173.87 314.382 1173.9 315.146C1173.94 316.299 1172.88 316.402 1172.81 316.407C1172.65 316.416 1171.86 316.432 1171.61 315.545C1171.59 315.449 1171.49 314.743 1171.45 314.471C1171.4 314.093 1171.37 313.711 1171.34 313.329C1170.44 309.33 1167.2 306.938 1163.43 306.275ZM1167.74 305.275C1170.9 304.047 1172.55 301.93 1173.43 299.335L1173.43 299.335C1174.17 301.059 1175.13 302.65 1176.15 303.535C1176.54 303.871 1177.35 304.215 1178.26 304.54C1177.38 304.606 1176.44 304.716 1175.64 304.895C1174.72 305.098 1173.94 305.409 1173.47 305.787C1172.54 306.517 1171.99 307.481 1171.66 308.539C1170.63 307.157 1169.28 306.064 1167.74 305.275Z" fill="#1C2B32"/>
</g>
<path fill-rule="evenodd" clip-rule="evenodd" d="M193.266 421.886C191.994 427.873 192.27 433.591 192.285 439.623C192.289 440.801 193.243 441.75 194.415 441.749C195.589 441.747 196.538 440.788 196.535 439.61C196.521 433.89 196.216 428.457 197.422 422.769C197.667 421.619 196.933 420.485 195.786 420.245C194.639 419.997 193.51 420.735 193.266 421.886Z" fill="#1C2B32"/>
<path fill-rule="evenodd" clip-rule="evenodd" d="M180.508 410.763C170.896 420.135 161.937 432.085 155.79 444.059C155.254 445.105 155.665 446.391 156.708 446.926C157.751 447.461 159.033 447.051 159.569 446.005C165.514 434.428 174.178 422.871 183.472 413.813C184.313 412.992 184.33 411.643 183.512 410.803C182.694 409.963 181.348 409.941 180.508 410.763Z" fill="#1C2B32"/>
<path fill-rule="evenodd" clip-rule="evenodd" d="M177.689 400.944C168.589 399.734 159.338 402.58 151.22 406.448C150.162 406.957 149.711 408.227 150.214 409.283C150.718 410.346 151.987 410.796 153.047 410.294C160.44 406.768 168.841 404.062 177.129 405.163C178.292 405.318 179.361 404.497 179.515 403.335C179.67 402.173 178.851 401.099 177.689 400.944Z" fill="#1C2B32"/>
<mask id="path-12-inside-1_105_4397" fill="white">
<path d="M100.284 100.804C103.617 105.685 105.955 111.178 107.165 116.97C108.374 122.762 108.432 128.739 107.334 134.559C106.236 140.38 104.004 145.931 100.766 150.894C97.5278 155.858 93.3466 160.137 88.461 163.488C83.5755 166.838 78.0814 169.195 72.2923 170.423C66.5033 171.65 60.5327 171.725 54.7214 170.643C48.9101 169.561 43.372 167.343 38.4233 164.116C33.4745 160.889 29.212 156.715 25.8792 151.834L42.6835 140.309C44.5109 142.986 46.848 145.274 49.5614 147.043C52.2749 148.813 55.3114 150.029 58.4978 150.622C61.6841 151.216 64.9578 151.175 68.132 150.501C71.3062 149.828 74.3186 148.536 76.9974 146.699C79.6761 144.862 81.9687 142.515 83.7442 139.794C85.5198 137.072 86.7434 134.029 87.3454 130.837C87.9474 127.646 87.9159 124.369 87.2527 121.193C86.5895 118.017 85.3076 115.006 83.4802 112.329L100.284 100.804Z"/>
</mask>
<path d="M100.284 100.804C103.617 105.685 105.955 111.178 107.165 116.97C108.374 122.762 108.432 128.739 107.334 134.559C106.236 140.38 104.004 145.931 100.766 150.894C97.5278 155.858 93.3466 160.137 88.461 163.488C83.5755 166.838 78.0814 169.195 72.2923 170.423C66.5033 171.65 60.5327 171.725 54.7214 170.643C48.9101 169.561 43.372 167.343 38.4233 164.116C33.4745 160.889 29.212 156.715 25.8792 151.834L42.6835 140.309C44.5109 142.986 46.848 145.274 49.5614 147.043C52.2749 148.813 55.3114 150.029 58.4978 150.622C61.6841 151.216 64.9578 151.175 68.132 150.501C71.3062 149.828 74.3186 148.536 76.9974 146.699C79.6761 144.862 81.9687 142.515 83.7442 139.794C85.5198 137.072 86.7434 134.029 87.3454 130.837C87.9474 127.646 87.9159 124.369 87.2527 121.193C86.5895 118.017 85.3076 115.006 83.4802 112.329L100.284 100.804Z" stroke="#48C287" stroke-width="290" mask="url(#path-12-inside-1_105_4397)"/>
<path fill-rule="evenodd" clip-rule="evenodd" d="M700.333 480.687C729.231 463.78 738.889 426.685 721.904 397.833C704.919 368.98 667.723 359.296 638.825 376.203C609.927 393.109 600.269 430.204 617.254 459.057C634.239 487.909 671.435 497.593 700.333 480.687ZM687.539 458.954C670.663 468.827 648.94 463.172 639.021 446.322C629.102 429.472 634.742 407.809 651.619 397.935C668.495 388.062 690.218 393.717 700.137 410.567C710.056 427.417 704.416 449.08 687.539 458.954Z" fill="#4386D1"/>
<path fill-rule="evenodd" clip-rule="evenodd" d="M322.473 414.435C360.292 392.31 372.931 343.764 350.703 306.005C328.475 268.246 279.797 255.572 241.978 277.698C204.158 299.823 191.52 348.369 213.748 386.128C235.976 423.887 284.654 436.561 322.473 414.435ZM305.73 385.994C283.644 398.915 255.216 391.514 242.234 369.463C229.253 347.411 236.634 319.06 258.721 306.139C280.807 293.218 309.235 300.619 322.216 322.67C335.198 344.722 327.816 373.073 305.73 385.994Z" fill="#4386D1"/>
<path d="M1077.72 449.999C1081.08 446.638 1086.36 446.083 1090.2 448.882C1110.2 463.444 1127.04 481.951 1139.67 503.289C1153.68 526.974 1162.14 553.526 1164.39 580.944C1166.65 608.361 1162.65 635.926 1152.69 661.558C1142.74 687.189 1127.09 710.219 1106.92 728.907C1090.09 746.425 1069.97 760.452 1047.71 770.186C1025.44 779.921 1001.48 785.172 977.175 785.639C952.873 786.107 928.712 781.782 906.072 772.911C883.432 764.041 862.757 750.799 845.227 733.942C838.466 727.206 832.288 719.917 826.756 712.151C824.027 708.319 824.61 703.104 827.937 699.778L1077.72 449.999Z" fill="#EE7373"/>
<defs>
<clipPath id="clip0_105_4397">
<rect width="24" height="26" fill="white" transform="translate(1157.54 315.507) rotate(-85.4042)"/>
</clipPath>
</defs>
</svg>
