<svg width="1173" height="335" viewBox="0 0 1173 335" fill="none" xmlns="http://www.w3.org/2000/svg">
<g clip-path="url(#clip0_23_752)">
<rect x="39" y="53.4658" width="1081" height="216" rx="40" fill="#1C2B32"/>
<g opacity="0.6">
<g filter="url(#filter0_f_23_752)">
<path d="M446.938 79.0832C476.821 -32.4424 650.795 -82.7266 835.521 -33.2297C1020.25 16.2673 1145.77 146.802 1115.89 258.328C1086 369.853 912.029 420.137 727.304 370.641C542.579 321.144 417.055 190.609 446.938 79.0832Z" fill="#4EBA85"/>
</g>
<g filter="url(#filter1_f_23_752)">
<path d="M1364.68 602.109L1629.95 516.19C1639.54 513.086 1643.1 497.566 1637.9 481.525L1579.31 300.606C1574.11 284.565 1562.13 274.078 1552.54 277.183L1287.27 363.102C1277.68 366.206 1274.12 381.726 1279.32 397.767L1337.91 578.685C1343.11 594.726 1355.09 605.213 1364.68 602.109Z" fill="#48C287"/>
</g>
<g filter="url(#filter2_f_23_752)">
<path d="M557.919 -351.407C521.495 -463.868 437.139 -537.277 369.504 -515.372C301.87 -493.466 276.568 -384.541 312.992 -272.08C349.416 -159.619 433.773 -86.2097 501.407 -108.115C569.042 -130.021 594.343 -238.946 557.919 -351.407Z" fill="#4386D1"/>
</g>
</g>
<g opacity="0.6">
<g filter="url(#filter3_f_23_752)">
<path d="M-124.241 -121.385C-64.8801 -231.647 139.131 -237.107 331.43 -133.581C523.73 -30.0542 631.498 143.256 572.137 253.518C512.776 363.78 308.765 369.24 116.466 265.713C-75.8336 162.186 -183.602 -11.1234 -124.241 -121.385Z" fill="#4386D1"/>
</g>
<g filter="url(#filter4_f_23_752)">
<path d="M760.534 472.518L1025.81 386.599C1035.4 383.495 1038.96 367.975 1033.76 351.934L975.165 171.015C969.97 154.974 957.988 144.487 948.403 147.591L683.124 233.51C673.54 236.615 669.982 252.135 675.177 268.176L733.773 449.094C738.968 465.135 750.95 475.622 760.534 472.518Z" fill="#F6C050"/>
</g>
<g filter="url(#filter5_f_23_752)">
<path d="M-46.2213 -480.998C-82.6453 -593.459 -167.001 -666.868 -234.636 -644.963C-302.271 -623.057 -327.572 -514.132 -291.148 -401.671C-254.724 -289.21 -170.368 -215.801 -102.733 -237.706C-35.0987 -259.612 -9.79737 -368.537 -46.2213 -480.998Z" fill="#4386D1"/>
</g>
</g>
</g>
<path d="M174.32 126.386V154.466H167.48V126.386H174.32ZM192.877 131.906C195.49 131.906 197.57 132.759 199.117 134.466C200.69 136.146 201.477 138.466 201.477 141.426V154.466H194.677V142.346C194.677 140.852 194.29 139.692 193.517 138.866C192.744 138.039 191.704 137.626 190.397 137.626C189.09 137.626 188.05 138.039 187.277 138.866C186.504 139.692 186.117 140.852 186.117 142.346V154.466H179.277V132.146H186.117V135.106C186.81 134.119 187.744 133.346 188.917 132.786C190.09 132.199 191.41 131.906 192.877 131.906ZM215.31 154.786C213.363 154.786 211.63 154.452 210.11 153.786C208.59 153.119 207.39 152.212 206.51 151.066C205.63 149.892 205.137 148.586 205.03 147.146H211.79C211.87 147.919 212.23 148.546 212.87 149.026C213.51 149.506 214.297 149.746 215.23 149.746C216.083 149.746 216.737 149.586 217.19 149.266C217.67 148.919 217.91 148.479 217.91 147.946C217.91 147.306 217.577 146.839 216.91 146.546C216.243 146.226 215.163 145.879 213.67 145.506C212.07 145.132 210.737 144.746 209.67 144.346C208.603 143.919 207.683 143.266 206.91 142.386C206.137 141.479 205.75 140.266 205.75 138.746C205.75 137.466 206.097 136.306 206.79 135.266C207.51 134.199 208.55 133.359 209.91 132.746C211.297 132.132 212.937 131.826 214.83 131.826C217.63 131.826 219.83 132.519 221.43 133.906C223.057 135.292 223.99 137.132 224.23 139.426H217.91C217.803 138.652 217.457 138.039 216.87 137.586C216.31 137.132 215.563 136.906 214.63 136.906C213.83 136.906 213.217 137.066 212.79 137.386C212.363 137.679 212.15 138.092 212.15 138.626C212.15 139.266 212.483 139.746 213.15 140.066C213.843 140.386 214.91 140.706 216.35 141.026C218.003 141.452 219.35 141.879 220.39 142.306C221.43 142.706 222.337 143.372 223.11 144.306C223.91 145.212 224.323 146.439 224.35 147.986C224.35 149.292 223.977 150.466 223.23 151.506C222.51 152.519 221.457 153.319 220.07 153.906C218.71 154.492 217.123 154.786 215.31 154.786ZM235.375 135.306C236.041 134.266 236.961 133.426 238.135 132.786C239.308 132.146 240.681 131.826 242.255 131.826C244.095 131.826 245.761 132.292 247.255 133.226C248.748 134.159 249.921 135.492 250.775 137.226C251.655 138.959 252.095 140.972 252.095 143.266C252.095 145.559 251.655 147.586 250.775 149.346C249.921 151.079 248.748 152.426 247.255 153.386C245.761 154.319 244.095 154.786 242.255 154.786C240.708 154.786 239.335 154.466 238.135 153.826C236.961 153.186 236.041 152.359 235.375 151.346V165.106H228.535V132.146H235.375V135.306ZM245.135 143.266C245.135 141.559 244.655 140.226 243.695 139.266C242.761 138.279 241.601 137.786 240.215 137.786C238.855 137.786 237.695 138.279 236.735 139.266C235.801 140.252 235.335 141.599 235.335 143.306C235.335 145.012 235.801 146.359 236.735 147.346C237.695 148.332 238.855 148.826 240.215 148.826C241.575 148.826 242.735 148.332 243.695 147.346C244.655 146.332 245.135 144.972 245.135 143.266ZM259.123 129.826C257.923 129.826 256.936 129.479 256.163 128.786C255.416 128.066 255.043 127.186 255.043 126.146C255.043 125.079 255.416 124.199 256.163 123.506C256.936 122.786 257.923 122.426 259.123 122.426C260.296 122.426 261.256 122.786 262.003 123.506C262.776 124.199 263.163 125.079 263.163 126.146C263.163 127.186 262.776 128.066 262.003 128.786C261.256 129.479 260.296 129.826 259.123 129.826ZM262.523 132.146V154.466H255.683V132.146H262.523ZM274.32 135.866C275.12 134.639 276.12 133.679 277.32 132.986C278.52 132.266 279.853 131.906 281.32 131.906V139.146H279.44C277.733 139.146 276.453 139.519 275.6 140.266C274.747 140.986 274.32 142.266 274.32 144.106V154.466H267.48V132.146H274.32V135.866ZM288.029 129.826C286.829 129.826 285.843 129.479 285.069 128.786C284.323 128.066 283.949 127.186 283.949 126.146C283.949 125.079 284.323 124.199 285.069 123.506C285.843 122.786 286.829 122.426 288.029 122.426C289.203 122.426 290.163 122.786 290.909 123.506C291.683 124.199 292.069 125.079 292.069 126.146C292.069 127.186 291.683 128.066 290.909 128.786C290.163 129.479 289.203 129.826 288.029 129.826ZM291.429 132.146V154.466H284.589V132.146H291.429ZM309.986 131.906C312.6 131.906 314.68 132.759 316.226 134.466C317.8 136.146 318.586 138.466 318.586 141.426V154.466H311.786V142.346C311.786 140.852 311.4 139.692 310.626 138.866C309.853 138.039 308.813 137.626 307.506 137.626C306.2 137.626 305.16 138.039 304.386 138.866C303.613 139.692 303.226 140.852 303.226 142.346V154.466H296.386V132.146H303.226V135.106C303.92 134.119 304.853 133.346 306.026 132.786C307.2 132.199 308.52 131.906 309.986 131.906ZM331.819 131.826C333.393 131.826 334.766 132.146 335.939 132.786C337.139 133.426 338.059 134.266 338.699 135.306V132.146H345.539V154.426C345.539 156.479 345.126 158.332 344.299 159.986C343.499 161.666 342.259 162.999 340.579 163.986C338.926 164.972 336.859 165.466 334.379 165.466C331.073 165.466 328.393 164.679 326.339 163.106C324.286 161.559 323.113 159.452 322.819 156.786H329.579C329.793 157.639 330.299 158.306 331.099 158.786C331.899 159.292 332.886 159.546 334.059 159.546C335.473 159.546 336.593 159.132 337.419 158.306C338.273 157.506 338.699 156.212 338.699 154.426V151.266C338.033 152.306 337.113 153.159 335.939 153.826C334.766 154.466 333.393 154.786 331.819 154.786C329.979 154.786 328.313 154.319 326.819 153.386C325.326 152.426 324.139 151.079 323.259 149.346C322.406 147.586 321.979 145.559 321.979 143.266C321.979 140.972 322.406 138.959 323.259 137.226C324.139 135.492 325.326 134.159 326.819 133.226C328.313 132.292 329.979 131.826 331.819 131.826ZM338.699 143.306C338.699 141.599 338.219 140.252 337.259 139.266C336.326 138.279 335.179 137.786 333.819 137.786C332.459 137.786 331.299 138.279 330.339 139.266C329.406 140.226 328.939 141.559 328.939 143.266C328.939 144.972 329.406 146.332 330.339 147.346C331.299 148.332 332.459 148.826 333.819 148.826C335.179 148.826 336.326 148.332 337.259 147.346C338.219 146.359 338.699 145.012 338.699 143.306ZM371.404 148.666V154.466H367.924C365.444 154.466 363.511 153.866 362.124 152.666C360.738 151.439 360.044 149.452 360.044 146.706V137.826H357.324V132.146H360.044V126.706H366.884V132.146H371.364V137.826H366.884V146.786C366.884 147.452 367.044 147.932 367.364 148.226C367.684 148.519 368.218 148.666 368.964 148.666H371.404ZM385.374 154.786C383.188 154.786 381.214 154.319 379.454 153.386C377.721 152.452 376.348 151.119 375.334 149.386C374.348 147.652 373.854 145.626 373.854 143.306C373.854 141.012 374.361 138.999 375.374 137.266C376.388 135.506 377.774 134.159 379.534 133.226C381.294 132.292 383.268 131.826 385.454 131.826C387.641 131.826 389.614 132.292 391.374 133.226C393.134 134.159 394.521 135.506 395.534 137.266C396.548 138.999 397.054 141.012 397.054 143.306C397.054 145.599 396.534 147.626 395.494 149.386C394.481 151.119 393.081 152.452 391.294 153.386C389.534 154.319 387.561 154.786 385.374 154.786ZM385.374 148.866C386.681 148.866 387.788 148.386 388.694 147.426C389.628 146.466 390.094 145.092 390.094 143.306C390.094 141.519 389.641 140.146 388.734 139.186C387.854 138.226 386.761 137.746 385.454 137.746C384.121 137.746 383.014 138.226 382.134 139.186C381.254 140.119 380.814 141.492 380.814 143.306C380.814 145.092 381.241 146.466 382.094 147.426C382.974 148.386 384.068 148.866 385.374 148.866ZM407.8 143.266C407.8 140.972 408.226 138.959 409.08 137.226C409.96 135.492 411.146 134.159 412.64 133.226C414.133 132.292 415.8 131.826 417.64 131.826C419.106 131.826 420.44 132.132 421.64 132.746C422.866 133.359 423.826 134.186 424.52 135.226V124.866H431.36V154.466H424.52V151.266C423.88 152.332 422.96 153.186 421.76 153.826C420.586 154.466 419.213 154.786 417.64 154.786C415.8 154.786 414.133 154.319 412.64 153.386C411.146 152.426 409.96 151.079 409.08 149.346C408.226 147.586 407.8 145.559 407.8 143.266ZM424.52 143.306C424.52 141.599 424.04 140.252 423.08 139.266C422.146 138.279 421 137.786 419.64 137.786C418.28 137.786 417.12 138.279 416.16 139.266C415.226 140.226 414.76 141.559 414.76 143.266C414.76 144.972 415.226 146.332 416.16 147.346C417.12 148.332 418.28 148.826 419.64 148.826C421 148.826 422.146 148.332 423.08 147.346C424.04 146.359 424.52 145.012 424.52 143.306ZM443.148 135.866C443.948 134.639 444.948 133.679 446.148 132.986C447.348 132.266 448.681 131.906 450.148 131.906V139.146H448.268C446.561 139.146 445.281 139.519 444.428 140.266C443.575 140.986 443.148 142.266 443.148 144.106V154.466H436.308V132.146H443.148V135.866ZM474.457 142.946C474.457 143.586 474.418 144.252 474.338 144.946H458.858C458.964 146.332 459.404 147.399 460.178 148.146C460.978 148.866 461.951 149.226 463.098 149.226C464.804 149.226 465.991 148.506 466.658 147.066H473.938C473.564 148.532 472.884 149.852 471.898 151.026C470.938 152.199 469.724 153.119 468.258 153.786C466.791 154.452 465.151 154.786 463.338 154.786C461.151 154.786 459.204 154.319 457.498 153.386C455.791 152.452 454.458 151.119 453.498 149.386C452.538 147.652 452.058 145.626 452.058 143.306C452.058 140.986 452.524 138.959 453.458 137.226C454.418 135.492 455.751 134.159 457.458 133.226C459.164 132.292 461.124 131.826 463.338 131.826C465.498 131.826 467.418 132.279 469.098 133.186C470.778 134.092 472.084 135.386 473.018 137.066C473.978 138.746 474.457 140.706 474.457 142.946ZM467.458 141.146C467.458 139.972 467.058 139.039 466.258 138.346C465.458 137.652 464.458 137.306 463.258 137.306C462.111 137.306 461.138 137.639 460.338 138.306C459.564 138.972 459.084 139.919 458.898 141.146H467.458ZM476.706 143.266C476.706 140.972 477.133 138.959 477.986 137.226C478.866 135.492 480.053 134.159 481.546 133.226C483.039 132.292 484.706 131.826 486.546 131.826C488.119 131.826 489.493 132.146 490.666 132.786C491.866 133.426 492.786 134.266 493.426 135.306V132.146H500.266V154.466H493.426V151.306C492.759 152.346 491.826 153.186 490.626 153.826C489.453 154.466 488.079 154.786 486.506 154.786C484.693 154.786 483.039 154.319 481.546 153.386C480.053 152.426 478.866 151.079 477.986 149.346C477.133 147.586 476.706 145.559 476.706 143.266ZM493.426 143.306C493.426 141.599 492.946 140.252 491.986 139.266C491.053 138.279 489.906 137.786 488.546 137.786C487.186 137.786 486.026 138.279 485.066 139.266C484.133 140.226 483.666 141.559 483.666 143.266C483.666 144.972 484.133 146.332 485.066 147.346C486.026 148.332 487.186 148.826 488.546 148.826C489.906 148.826 491.053 148.332 491.986 147.346C492.946 146.359 493.426 145.012 493.426 143.306ZM533.694 131.906C536.468 131.906 538.668 132.746 540.294 134.426C541.948 136.106 542.774 138.439 542.774 141.426V154.466H535.974V142.346C535.974 140.906 535.588 139.799 534.814 139.026C534.068 138.226 533.028 137.826 531.694 137.826C530.361 137.826 529.308 138.226 528.534 139.026C527.788 139.799 527.414 140.906 527.414 142.346V154.466H520.614V142.346C520.614 140.906 520.228 139.799 519.454 139.026C518.708 138.226 517.668 137.826 516.334 137.826C515.001 137.826 513.948 138.226 513.174 139.026C512.428 139.799 512.054 140.906 512.054 142.346V154.466H505.214V132.146H512.054V134.946C512.748 134.012 513.654 133.279 514.774 132.746C515.894 132.186 517.161 131.906 518.574 131.906C520.254 131.906 521.748 132.266 523.054 132.986C524.388 133.706 525.428 134.732 526.174 136.066C526.948 134.839 528.001 133.839 529.334 133.066C530.668 132.292 532.121 131.906 533.694 131.906ZM550.758 154.786C549.558 154.786 548.571 154.439 547.798 153.746C547.051 153.026 546.678 152.146 546.678 151.106C546.678 150.039 547.051 149.146 547.798 148.426C548.571 147.706 549.558 147.346 550.758 147.346C551.931 147.346 552.891 147.706 553.638 148.426C554.411 149.146 554.798 150.039 554.798 151.106C554.798 152.146 554.411 153.026 553.638 153.746C552.891 154.439 551.931 154.786 550.758 154.786ZM566.164 140.386C566.164 137.612 566.764 135.146 567.964 132.986C569.164 130.799 570.83 129.106 572.964 127.906C575.124 126.679 577.564 126.066 580.284 126.066C583.617 126.066 586.47 126.946 588.844 128.706C591.217 130.466 592.804 132.866 593.604 135.906H586.084C585.524 134.732 584.724 133.839 583.684 133.226C582.67 132.612 581.51 132.306 580.204 132.306C578.097 132.306 576.39 133.039 575.084 134.506C573.777 135.972 573.124 137.932 573.124 140.386C573.124 142.839 573.777 144.799 575.084 146.266C576.39 147.732 578.097 148.466 580.204 148.466C581.51 148.466 582.67 148.159 583.684 147.546C584.724 146.932 585.524 146.039 586.084 144.866H593.604C592.804 147.906 591.217 150.306 588.844 152.066C586.47 153.799 583.617 154.666 580.284 154.666C577.564 154.666 575.124 154.066 572.964 152.866C570.83 151.639 569.164 149.946 567.964 147.786C566.764 145.626 566.164 143.159 566.164 140.386ZM604.633 135.866C605.433 134.639 606.433 133.679 607.633 132.986C608.833 132.266 610.166 131.906 611.633 131.906V139.146H609.753C608.046 139.146 606.766 139.519 605.913 140.266C605.059 140.986 604.633 142.266 604.633 144.106V154.466H597.793V132.146H604.633V135.866ZM635.942 142.946C635.942 143.586 635.902 144.252 635.822 144.946H620.342C620.449 146.332 620.889 147.399 621.662 148.146C622.462 148.866 623.435 149.226 624.582 149.226C626.289 149.226 627.475 148.506 628.142 147.066H635.422C635.049 148.532 634.369 149.852 633.382 151.026C632.422 152.199 631.209 153.119 629.742 153.786C628.275 154.452 626.635 154.786 624.822 154.786C622.635 154.786 620.689 154.319 618.982 153.386C617.275 152.452 615.942 151.119 614.982 149.386C614.022 147.652 613.542 145.626 613.542 143.306C613.542 140.986 614.009 138.959 614.942 137.226C615.902 135.492 617.235 134.159 618.942 133.226C620.649 132.292 622.609 131.826 624.822 131.826C626.982 131.826 628.902 132.279 630.582 133.186C632.262 134.092 633.569 135.386 634.502 137.066C635.462 138.746 635.942 140.706 635.942 142.946ZM628.942 141.146C628.942 139.972 628.542 139.039 627.742 138.346C626.942 137.652 625.942 137.306 624.742 137.306C623.595 137.306 622.622 137.639 621.822 138.306C621.049 138.972 620.569 139.919 620.382 141.146H628.942ZM638.19 143.266C638.19 140.972 638.617 138.959 639.47 137.226C640.35 135.492 641.537 134.159 643.03 133.226C644.524 132.292 646.19 131.826 648.03 131.826C649.604 131.826 650.977 132.146 652.15 132.786C653.35 133.426 654.27 134.266 654.91 135.306V132.146H661.75V154.466H654.91V151.306C654.244 152.346 653.31 153.186 652.11 153.826C650.937 154.466 649.564 154.786 647.99 154.786C646.177 154.786 644.524 154.319 643.03 153.386C641.537 152.426 640.35 151.079 639.47 149.346C638.617 147.586 638.19 145.559 638.19 143.266ZM654.91 143.306C654.91 141.599 654.43 140.252 653.47 139.266C652.537 138.279 651.39 137.786 650.03 137.786C648.67 137.786 647.51 138.279 646.55 139.266C645.617 140.226 645.15 141.559 645.15 143.266C645.15 144.972 645.617 146.332 646.55 147.346C647.51 148.332 648.67 148.826 650.03 148.826C651.39 148.826 652.537 148.332 653.47 147.346C654.43 146.359 654.91 145.012 654.91 143.306ZM679.139 148.666V154.466H675.659C673.179 154.466 671.245 153.866 669.859 152.666C668.472 151.439 667.779 149.452 667.779 146.706V137.826H665.059V132.146H667.779V126.706H674.619V132.146H679.099V137.826H674.619V146.786C674.619 147.452 674.779 147.932 675.099 148.226C675.419 148.519 675.952 148.666 676.699 148.666H679.139ZM686.389 129.826C685.189 129.826 684.202 129.479 683.429 128.786C682.682 128.066 682.309 127.186 682.309 126.146C682.309 125.079 682.682 124.199 683.429 123.506C684.202 122.786 685.189 122.426 686.389 122.426C687.562 122.426 688.522 122.786 689.269 123.506C690.042 124.199 690.429 125.079 690.429 126.146C690.429 127.186 690.042 128.066 689.269 128.786C688.522 129.479 687.562 129.826 686.389 129.826ZM689.789 132.146V154.466H682.949V132.146H689.789ZM708.346 131.906C710.959 131.906 713.039 132.759 714.586 134.466C716.159 136.146 716.946 138.466 716.946 141.426V154.466H710.146V142.346C710.146 140.852 709.759 139.692 708.986 138.866C708.212 138.039 707.172 137.626 705.866 137.626C704.559 137.626 703.519 138.039 702.746 138.866C701.972 139.692 701.586 140.852 701.586 142.346V154.466H694.746V132.146H701.586V135.106C702.279 134.119 703.212 133.346 704.386 132.786C705.559 132.199 706.879 131.906 708.346 131.906ZM730.179 131.826C731.752 131.826 733.125 132.146 734.299 132.786C735.499 133.426 736.419 134.266 737.059 135.306V132.146H743.899V154.426C743.899 156.479 743.485 158.332 742.659 159.986C741.859 161.666 740.619 162.999 738.939 163.986C737.285 164.972 735.219 165.466 732.739 165.466C729.432 165.466 726.752 164.679 724.699 163.106C722.645 161.559 721.472 159.452 721.179 156.786H727.939C728.152 157.639 728.659 158.306 729.459 158.786C730.259 159.292 731.245 159.546 732.419 159.546C733.832 159.546 734.952 159.132 735.779 158.306C736.632 157.506 737.059 156.212 737.059 154.426V151.266C736.392 152.306 735.472 153.159 734.299 153.826C733.125 154.466 731.752 154.786 730.179 154.786C728.339 154.786 726.672 154.319 725.179 153.386C723.685 152.426 722.499 151.079 721.619 149.346C720.765 147.586 720.339 145.559 720.339 143.266C720.339 140.972 720.765 138.959 721.619 137.226C722.499 135.492 723.685 134.159 725.179 133.226C726.672 132.292 728.339 131.826 730.179 131.826ZM737.059 143.306C737.059 141.599 736.579 140.252 735.619 139.266C734.685 138.279 733.539 137.786 732.179 137.786C730.819 137.786 729.659 138.279 728.699 139.266C727.765 140.226 727.299 141.559 727.299 143.266C727.299 144.972 727.765 146.332 728.699 147.346C729.659 148.332 730.819 148.826 732.179 148.826C733.539 148.826 734.685 148.332 735.619 147.346C736.579 146.359 737.059 145.012 737.059 143.306ZM769.764 148.666V154.466H766.284C763.804 154.466 761.87 153.866 760.484 152.666C759.097 151.439 758.404 149.452 758.404 146.706V137.826H755.684V132.146H758.404V126.706H765.244V132.146H769.724V137.826H765.244V146.786C765.244 147.452 765.404 147.932 765.724 148.226C766.044 148.519 766.577 148.666 767.324 148.666H769.764ZM787.294 131.906C789.854 131.906 791.907 132.759 793.454 134.466C795 136.146 795.774 138.466 795.774 141.426V154.466H788.974V142.346C788.974 140.852 788.587 139.692 787.814 138.866C787.04 138.039 786 137.626 784.694 137.626C783.387 137.626 782.347 138.039 781.574 138.866C780.8 139.692 780.414 140.852 780.414 142.346V154.466H773.574V124.866H780.414V135.146C781.107 134.159 782.054 133.372 783.254 132.786C784.454 132.199 785.8 131.906 787.294 131.906ZM821.567 142.946C821.567 143.586 821.527 144.252 821.447 144.946H805.967C806.074 146.332 806.514 147.399 807.287 148.146C808.087 148.866 809.06 149.226 810.207 149.226C811.914 149.226 813.1 148.506 813.767 147.066H821.047C820.674 148.532 819.994 149.852 819.007 151.026C818.047 152.199 816.834 153.119 815.367 153.786C813.9 154.452 812.26 154.786 810.447 154.786C808.26 154.786 806.314 154.319 804.607 153.386C802.9 152.452 801.567 151.119 800.607 149.386C799.647 147.652 799.167 145.626 799.167 143.306C799.167 140.986 799.634 138.959 800.567 137.226C801.527 135.492 802.86 134.159 804.567 133.226C806.274 132.292 808.234 131.826 810.447 131.826C812.607 131.826 814.527 132.279 816.207 133.186C817.887 134.092 819.194 135.386 820.127 137.066C821.087 138.746 821.567 140.706 821.567 142.946ZM814.567 141.146C814.567 139.972 814.167 139.039 813.367 138.346C812.567 137.652 811.567 137.306 810.367 137.306C809.22 137.306 808.247 137.639 807.447 138.306C806.674 138.972 806.194 139.919 806.007 141.146H814.567ZM832.292 143.266C832.292 140.972 832.719 138.959 833.572 137.226C834.452 135.492 835.639 134.159 837.132 133.226C838.625 132.292 840.292 131.826 842.132 131.826C843.599 131.826 844.932 132.132 846.132 132.746C847.359 133.359 848.319 134.186 849.012 135.226V124.866H855.852V154.466H849.012V151.266C848.372 152.332 847.452 153.186 846.252 153.826C845.079 154.466 843.705 154.786 842.132 154.786C840.292 154.786 838.625 154.319 837.132 153.386C835.639 152.426 834.452 151.079 833.572 149.346C832.719 147.586 832.292 145.559 832.292 143.266ZM849.012 143.306C849.012 141.599 848.532 140.252 847.572 139.266C846.639 138.279 845.492 137.786 844.132 137.786C842.772 137.786 841.612 138.279 840.652 139.266C839.719 140.226 839.252 141.559 839.252 143.266C839.252 144.972 839.719 146.332 840.652 147.346C841.612 148.332 842.772 148.826 844.132 148.826C845.492 148.826 846.639 148.332 847.572 147.346C848.532 146.359 849.012 145.012 849.012 143.306ZM881.84 142.946C881.84 143.586 881.8 144.252 881.72 144.946H866.24C866.347 146.332 866.787 147.399 867.56 148.146C868.36 148.866 869.334 149.226 870.48 149.226C872.187 149.226 873.374 148.506 874.04 147.066H881.32C880.947 148.532 880.267 149.852 879.28 151.026C878.32 152.199 877.107 153.119 875.64 153.786C874.174 154.452 872.534 154.786 870.72 154.786C868.534 154.786 866.587 154.319 864.88 153.386C863.174 152.452 861.84 151.119 860.88 149.386C859.92 147.652 859.44 145.626 859.44 143.306C859.44 140.986 859.907 138.959 860.84 137.226C861.8 135.492 863.134 134.159 864.84 133.226C866.547 132.292 868.507 131.826 870.72 131.826C872.88 131.826 874.8 132.279 876.48 133.186C878.16 134.092 879.467 135.386 880.4 137.066C881.36 138.746 881.84 140.706 881.84 142.946ZM874.84 141.146C874.84 139.972 874.44 139.039 873.64 138.346C872.84 137.652 871.84 137.306 870.64 137.306C869.494 137.306 868.52 137.639 867.72 138.306C866.947 138.972 866.467 139.919 866.28 141.146H874.84ZM895.489 148.066L900.329 132.146H907.609L899.689 154.466H891.249L883.329 132.146H890.649L895.489 148.066ZM913.928 129.826C912.728 129.826 911.741 129.479 910.968 128.786C910.221 128.066 909.848 127.186 909.848 126.146C909.848 125.079 910.221 124.199 910.968 123.506C911.741 122.786 912.728 122.426 913.928 122.426C915.101 122.426 916.061 122.786 916.808 123.506C917.581 124.199 917.968 125.079 917.968 126.146C917.968 127.186 917.581 128.066 916.808 128.786C916.061 129.479 915.101 129.826 913.928 129.826ZM917.328 132.146V154.466H910.488V132.146H917.328ZM931.365 154.786C929.418 154.786 927.685 154.452 926.165 153.786C924.645 153.119 923.445 152.212 922.565 151.066C921.685 149.892 921.191 148.586 921.085 147.146H927.845C927.925 147.919 928.285 148.546 928.925 149.026C929.565 149.506 930.351 149.746 931.285 149.746C932.138 149.746 932.791 149.586 933.245 149.266C933.725 148.919 933.965 148.479 933.965 147.946C933.965 147.306 933.631 146.839 932.965 146.546C932.298 146.226 931.218 145.879 929.725 145.506C928.125 145.132 926.791 144.746 925.725 144.346C924.658 143.919 923.738 143.266 922.965 142.386C922.191 141.479 921.805 140.266 921.805 138.746C921.805 137.466 922.151 136.306 922.845 135.266C923.565 134.199 924.605 133.359 925.965 132.746C927.351 132.132 928.991 131.826 930.885 131.826C933.685 131.826 935.885 132.519 937.485 133.906C939.111 135.292 940.045 137.132 940.285 139.426H933.965C933.858 138.652 933.511 138.039 932.925 137.586C932.365 137.132 931.618 136.906 930.685 136.906C929.885 136.906 929.271 137.066 928.845 137.386C928.418 137.679 928.205 138.092 928.205 138.626C928.205 139.266 928.538 139.746 929.205 140.066C929.898 140.386 930.965 140.706 932.405 141.026C934.058 141.452 935.405 141.879 936.445 142.306C937.485 142.706 938.391 143.372 939.165 144.306C939.965 145.212 940.378 146.439 940.405 147.986C940.405 149.292 940.031 150.466 939.285 151.506C938.565 152.519 937.511 153.319 936.125 153.906C934.765 154.492 933.178 154.786 931.365 154.786ZM965.629 142.946C965.629 143.586 965.589 144.252 965.509 144.946H950.029C950.136 146.332 950.576 147.399 951.349 148.146C952.149 148.866 953.123 149.226 954.269 149.226C955.976 149.226 957.163 148.506 957.829 147.066H965.109C964.736 148.532 964.056 149.852 963.069 151.026C962.109 152.199 960.896 153.119 959.429 153.786C957.963 154.452 956.323 154.786 954.509 154.786C952.323 154.786 950.376 154.319 948.669 153.386C946.963 152.452 945.629 151.119 944.669 149.386C943.709 147.652 943.229 145.626 943.229 143.306C943.229 140.986 943.696 138.959 944.629 137.226C945.589 135.492 946.923 134.159 948.629 133.226C950.336 132.292 952.296 131.826 954.509 131.826C956.669 131.826 958.589 132.279 960.269 133.186C961.949 134.092 963.256 135.386 964.189 137.066C965.149 138.746 965.629 140.706 965.629 142.946ZM958.629 141.146C958.629 139.972 958.229 139.039 957.429 138.346C956.629 137.652 955.629 137.306 954.429 137.306C953.283 137.306 952.309 137.639 951.509 138.306C950.736 138.972 950.256 139.919 950.069 141.146H958.629ZM967.878 143.266C967.878 140.972 968.304 138.959 969.158 137.226C970.038 135.492 971.224 134.159 972.718 133.226C974.211 132.292 975.878 131.826 977.718 131.826C979.184 131.826 980.518 132.132 981.718 132.746C982.944 133.359 983.904 134.186 984.598 135.226V124.866H991.438V154.466H984.598V151.266C983.958 152.332 983.038 153.186 981.838 153.826C980.664 154.466 979.291 154.786 977.718 154.786C975.878 154.786 974.211 154.319 972.718 153.386C971.224 152.426 970.038 151.079 969.158 149.346C968.304 147.586 967.878 145.559 967.878 143.266ZM984.598 143.306C984.598 141.599 984.118 140.252 983.158 139.266C982.224 138.279 981.078 137.786 979.718 137.786C978.358 137.786 977.198 138.279 976.238 139.266C975.304 140.226 974.838 141.559 974.838 143.266C974.838 144.972 975.304 146.332 976.238 147.346C977.198 148.332 978.358 148.826 979.718 148.826C981.078 148.826 982.224 148.332 983.158 147.346C984.118 146.359 984.598 145.012 984.598 143.306Z" fill="#FDFDFD"/>
<path d="M298.292 180.454C299.66 180.454 300.842 180.712 301.838 181.228C302.846 181.732 303.614 182.458 304.142 183.406C304.682 184.354 304.952 185.47 304.952 186.754C304.952 188.038 304.682 189.154 304.142 190.102C303.614 191.038 302.846 191.758 301.838 192.262C300.842 192.754 299.66 193 298.292 193H294.386V180.454H298.292ZM298.292 191.65C299.912 191.65 301.148 191.224 302 190.372C302.852 189.508 303.278 188.302 303.278 186.754C303.278 185.194 302.846 183.976 301.982 183.1C301.13 182.224 299.9 181.786 298.292 181.786H296.024V191.65H298.292ZM307.959 181.534C307.647 181.534 307.383 181.426 307.167 181.21C306.951 180.994 306.843 180.73 306.843 180.418C306.843 180.106 306.951 179.842 307.167 179.626C307.383 179.41 307.647 179.302 307.959 179.302C308.259 179.302 308.511 179.41 308.715 179.626C308.931 179.842 309.039 180.106 309.039 180.418C309.039 180.73 308.931 180.994 308.715 181.21C308.511 181.426 308.259 181.534 307.959 181.534ZM308.751 183.136V193H307.113V183.136H308.751ZM310.93 188.05C310.93 187.03 311.134 186.142 311.542 185.386C311.95 184.618 312.514 184.024 313.234 183.604C313.966 183.184 314.8 182.974 315.736 182.974C316.948 182.974 317.944 183.268 318.724 183.856C319.516 184.444 320.038 185.26 320.29 186.304H318.526C318.358 185.704 318.028 185.23 317.536 184.882C317.056 184.534 316.456 184.36 315.736 184.36C314.8 184.36 314.044 184.684 313.468 185.332C312.892 185.968 312.604 186.874 312.604 188.05C312.604 189.238 312.892 190.156 313.468 190.804C314.044 191.452 314.8 191.776 315.736 191.776C316.456 191.776 317.056 191.608 317.536 191.272C318.016 190.936 318.346 190.456 318.526 189.832H320.29C320.026 190.84 319.498 191.65 318.706 192.262C317.914 192.862 316.924 193.162 315.736 193.162C314.8 193.162 313.966 192.952 313.234 192.532C312.514 192.112 311.95 191.518 311.542 190.75C311.134 189.982 310.93 189.082 310.93 188.05ZM326.778 193.162C325.854 193.162 325.014 192.952 324.258 192.532C323.514 192.112 322.926 191.518 322.494 190.75C322.074 189.97 321.864 189.07 321.864 188.05C321.864 187.042 322.08 186.154 322.512 185.386C322.956 184.606 323.556 184.012 324.312 183.604C325.068 183.184 325.914 182.974 326.85 182.974C327.786 182.974 328.632 183.184 329.388 183.604C330.144 184.012 330.738 184.6 331.17 185.368C331.614 186.136 331.836 187.03 331.836 188.05C331.836 189.07 331.608 189.97 331.152 190.75C330.708 191.518 330.102 192.112 329.334 192.532C328.566 192.952 327.714 193.162 326.778 193.162ZM326.778 191.722C327.366 191.722 327.918 191.584 328.434 191.308C328.95 191.032 329.364 190.618 329.676 190.066C330 189.514 330.162 188.842 330.162 188.05C330.162 187.258 330.006 186.586 329.694 186.034C329.382 185.482 328.974 185.074 328.47 184.81C327.966 184.534 327.42 184.396 326.832 184.396C326.232 184.396 325.68 184.534 325.176 184.81C324.684 185.074 324.288 185.482 323.988 186.034C323.688 186.586 323.538 187.258 323.538 188.05C323.538 188.854 323.682 189.532 323.97 190.084C324.27 190.636 324.666 191.05 325.158 191.326C325.65 191.59 326.19 191.722 326.778 191.722ZM337.662 191.488L340.722 183.136H342.468L338.598 193H336.69L332.82 183.136H334.584L337.662 191.488ZM353.079 187.69C353.079 188.002 353.061 188.332 353.025 188.68H345.141C345.201 189.652 345.531 190.414 346.131 190.966C346.743 191.506 347.481 191.776 348.345 191.776C349.053 191.776 349.641 191.614 350.109 191.29C350.589 190.954 350.925 190.51 351.117 189.958H352.881C352.617 190.906 352.089 191.68 351.297 192.28C350.505 192.868 349.521 193.162 348.345 193.162C347.409 193.162 346.569 192.952 345.825 192.532C345.093 192.112 344.517 191.518 344.097 190.75C343.677 189.97 343.467 189.07 343.467 188.05C343.467 187.03 343.671 186.136 344.079 185.368C344.487 184.6 345.057 184.012 345.789 183.604C346.533 183.184 347.385 182.974 348.345 182.974C349.281 182.974 350.109 183.178 350.829 183.586C351.549 183.994 352.101 184.558 352.485 185.278C352.881 185.986 353.079 186.79 353.079 187.69ZM351.387 187.348C351.387 186.724 351.249 186.19 350.973 185.746C350.697 185.29 350.319 184.948 349.839 184.72C349.371 184.48 348.849 184.36 348.273 184.36C347.445 184.36 346.737 184.624 346.149 185.152C345.573 185.68 345.243 186.412 345.159 187.348H351.387ZM356.879 184.738C357.167 184.174 357.575 183.736 358.103 183.424C358.643 183.112 359.297 182.956 360.065 182.956V184.648H359.633C357.797 184.648 356.879 185.644 356.879 187.636V193H355.241V183.136H356.879V184.738ZM368.753 184.486V190.3C368.753 190.78 368.855 191.122 369.059 191.326C369.263 191.518 369.617 191.614 370.121 191.614H371.327V193H369.851C368.939 193 368.255 192.79 367.799 192.37C367.343 191.95 367.115 191.26 367.115 190.3V184.486H365.837V183.136H367.115V180.652H368.753V183.136H371.327V184.486H368.753ZM378.208 182.956C378.952 182.956 379.624 183.118 380.224 183.442C380.824 183.754 381.292 184.228 381.628 184.864C381.976 185.5 382.15 186.274 382.15 187.186V193H380.53V187.42C380.53 186.436 380.284 185.686 379.792 185.17C379.3 184.642 378.628 184.378 377.776 184.378C376.912 184.378 376.222 184.648 375.706 185.188C375.202 185.728 374.95 186.514 374.95 187.546V193H373.312V179.68H374.95V184.54C375.274 184.036 375.718 183.646 376.282 183.37C376.858 183.094 377.5 182.956 378.208 182.956ZM393.825 187.69C393.825 188.002 393.807 188.332 393.771 188.68H385.887C385.947 189.652 386.277 190.414 386.877 190.966C387.489 191.506 388.227 191.776 389.091 191.776C389.799 191.776 390.387 191.614 390.855 191.29C391.335 190.954 391.671 190.51 391.863 189.958H393.627C393.363 190.906 392.835 191.68 392.043 192.28C391.251 192.868 390.267 193.162 389.091 193.162C388.155 193.162 387.315 192.952 386.571 192.532C385.839 192.112 385.263 191.518 384.843 190.75C384.423 189.97 384.213 189.07 384.213 188.05C384.213 187.03 384.417 186.136 384.825 185.368C385.233 184.6 385.803 184.012 386.535 183.604C387.279 183.184 388.131 182.974 389.091 182.974C390.027 182.974 390.855 183.178 391.575 183.586C392.295 183.994 392.847 184.558 393.231 185.278C393.627 185.986 393.825 186.79 393.825 187.69ZM392.133 187.348C392.133 186.724 391.995 186.19 391.719 185.746C391.443 185.29 391.065 184.948 390.585 184.72C390.117 184.48 389.595 184.36 389.019 184.36C388.191 184.36 387.483 184.624 386.895 185.152C386.319 185.68 385.989 186.412 385.905 187.348H392.133ZM405.592 182.956C406.792 182.956 407.764 183.322 408.508 184.054C409.252 184.774 409.624 185.818 409.624 187.186V193H408.004V187.42C408.004 186.436 407.758 185.686 407.266 185.17C406.774 184.642 406.102 184.378 405.25 184.378C404.386 184.378 403.696 184.648 403.18 185.188C402.676 185.728 402.424 186.514 402.424 187.546V193H400.786V183.136H402.424V184.54C402.748 184.036 403.186 183.646 403.738 183.37C404.302 183.094 404.92 182.956 405.592 182.956ZM421.3 187.69C421.3 188.002 421.282 188.332 421.246 188.68H413.362C413.422 189.652 413.752 190.414 414.352 190.966C414.964 191.506 415.702 191.776 416.566 191.776C417.274 191.776 417.862 191.614 418.33 191.29C418.81 190.954 419.146 190.51 419.338 189.958H421.102C420.838 190.906 420.31 191.68 419.518 192.28C418.726 192.868 417.742 193.162 416.566 193.162C415.63 193.162 414.79 192.952 414.046 192.532C413.314 192.112 412.738 191.518 412.318 190.75C411.898 189.97 411.688 189.07 411.688 188.05C411.688 187.03 411.892 186.136 412.3 185.368C412.708 184.6 413.278 184.012 414.01 183.604C414.754 183.184 415.606 182.974 416.566 182.974C417.502 182.974 418.33 183.178 419.05 183.586C419.77 183.994 420.322 184.558 420.706 185.278C421.102 185.986 421.3 186.79 421.3 187.69ZM419.608 187.348C419.608 186.724 419.47 186.19 419.194 185.746C418.918 185.29 418.54 184.948 418.06 184.72C417.592 184.48 417.07 184.36 416.494 184.36C415.666 184.36 414.958 184.624 414.37 185.152C413.794 185.68 413.464 186.412 413.38 187.348H419.608ZM436.602 183.136L433.524 193H431.832L429.456 185.17L427.08 193H425.388L422.292 183.136H423.966L426.234 191.416L428.682 183.136H430.356L432.75 191.434L434.982 183.136H436.602ZM447.228 187.69C447.228 188.002 447.21 188.332 447.174 188.68H439.29C439.35 189.652 439.68 190.414 440.28 190.966C440.892 191.506 441.63 191.776 442.494 191.776C443.202 191.776 443.79 191.614 444.258 191.29C444.738 190.954 445.074 190.51 445.266 189.958H447.03C446.766 190.906 446.238 191.68 445.446 192.28C444.654 192.868 443.67 193.162 442.494 193.162C441.558 193.162 440.718 192.952 439.974 192.532C439.242 192.112 438.666 191.518 438.246 190.75C437.826 189.97 437.616 189.07 437.616 188.05C437.616 187.03 437.82 186.136 438.228 185.368C438.636 184.6 439.206 184.012 439.938 183.604C440.682 183.184 441.534 182.974 442.494 182.974C443.43 182.974 444.258 183.178 444.978 183.586C445.698 183.994 446.25 184.558 446.634 185.278C447.03 185.986 447.228 186.79 447.228 187.69ZM445.536 187.348C445.536 186.724 445.398 186.19 445.122 185.746C444.846 185.29 444.468 184.948 443.988 184.72C443.52 184.48 442.998 184.36 442.422 184.36C441.594 184.36 440.886 184.624 440.298 185.152C439.722 185.68 439.392 186.412 439.308 187.348H445.536ZM452.882 193.162C452.126 193.162 451.448 193.036 450.848 192.784C450.248 192.52 449.774 192.16 449.426 191.704C449.078 191.236 448.886 190.702 448.85 190.102H450.542C450.59 190.594 450.818 190.996 451.226 191.308C451.646 191.62 452.192 191.776 452.864 191.776C453.488 191.776 453.98 191.638 454.34 191.362C454.7 191.086 454.88 190.738 454.88 190.318C454.88 189.886 454.688 189.568 454.304 189.364C453.92 189.148 453.326 188.938 452.522 188.734C451.79 188.542 451.19 188.35 450.722 188.158C450.266 187.954 449.87 187.66 449.534 187.276C449.21 186.88 449.048 186.364 449.048 185.728C449.048 185.224 449.198 184.762 449.498 184.342C449.798 183.922 450.224 183.592 450.776 183.352C451.328 183.1 451.958 182.974 452.666 182.974C453.758 182.974 454.64 183.25 455.312 183.802C455.984 184.354 456.344 185.11 456.392 186.07H454.754C454.718 185.554 454.508 185.14 454.124 184.828C453.752 184.516 453.248 184.36 452.612 184.36C452.024 184.36 451.556 184.486 451.208 184.738C450.86 184.99 450.686 185.32 450.686 185.728C450.686 186.052 450.788 186.322 450.992 186.538C451.208 186.742 451.472 186.91 451.784 187.042C452.108 187.162 452.552 187.3 453.116 187.456C453.824 187.648 454.4 187.84 454.844 188.032C455.288 188.212 455.666 188.488 455.978 188.86C456.302 189.232 456.47 189.718 456.482 190.318C456.482 190.858 456.332 191.344 456.032 191.776C455.732 192.208 455.306 192.55 454.754 192.802C454.214 193.042 453.59 193.162 452.882 193.162ZM460.792 184.486V190.3C460.792 190.78 460.894 191.122 461.098 191.326C461.302 191.518 461.656 191.614 462.16 191.614H463.366V193H461.89C460.978 193 460.294 192.79 459.838 192.37C459.382 191.95 459.154 191.26 459.154 190.3V184.486H457.876V183.136H459.154V180.652H460.792V183.136H463.366V184.486H460.792ZM469.538 188.032C469.538 187.024 469.742 186.142 470.15 185.386C470.558 184.618 471.116 184.024 471.824 183.604C472.544 183.184 473.342 182.974 474.218 182.974C475.082 182.974 475.832 183.16 476.468 183.532C477.104 183.904 477.578 184.372 477.89 184.936V183.136H479.546V193H477.89V191.164C477.566 191.74 477.08 192.22 476.432 192.604C475.796 192.976 475.052 193.162 474.2 193.162C473.324 193.162 472.532 192.946 471.824 192.514C471.116 192.082 470.558 191.476 470.15 190.696C469.742 189.916 469.538 189.028 469.538 188.032ZM477.89 188.05C477.89 187.306 477.74 186.658 477.44 186.106C477.14 185.554 476.732 185.134 476.216 184.846C475.712 184.546 475.154 184.396 474.542 184.396C473.93 184.396 473.372 184.54 472.868 184.828C472.364 185.116 471.962 185.536 471.662 186.088C471.362 186.64 471.212 187.288 471.212 188.032C471.212 188.788 471.362 189.448 471.662 190.012C471.962 190.564 472.364 190.99 472.868 191.29C473.372 191.578 473.93 191.722 474.542 191.722C475.154 191.722 475.712 191.578 476.216 191.29C476.732 190.99 477.14 190.564 477.44 190.012C477.74 189.448 477.89 188.794 477.89 188.05ZM483.952 184.738C484.24 184.174 484.648 183.736 485.176 183.424C485.716 183.112 486.37 182.956 487.138 182.956V184.648H486.706C484.87 184.648 483.952 185.644 483.952 187.636V193H482.314V183.136H483.952V184.738ZM491.027 184.486V190.3C491.027 190.78 491.129 191.122 491.333 191.326C491.537 191.518 491.891 191.614 492.395 191.614H493.601V193H492.125C491.213 193 490.529 192.79 490.073 192.37C489.617 191.95 489.389 191.26 489.389 190.3V184.486H488.111V183.136H489.389V180.652H491.027V183.136H493.601V184.486H491.027ZM496.431 181.534C496.119 181.534 495.855 181.426 495.639 181.21C495.423 180.994 495.315 180.73 495.315 180.418C495.315 180.106 495.423 179.842 495.639 179.626C495.855 179.41 496.119 179.302 496.431 179.302C496.731 179.302 496.983 179.41 497.187 179.626C497.403 179.842 497.511 180.106 497.511 180.418C497.511 180.73 497.403 180.994 497.187 181.21C496.983 181.426 496.731 181.534 496.431 181.534ZM497.223 183.136V193H495.585V183.136H497.223ZM499.403 188.05C499.403 187.03 499.607 186.142 500.015 185.386C500.423 184.618 500.987 184.024 501.707 183.604C502.439 183.184 503.273 182.974 504.209 182.974C505.421 182.974 506.417 183.268 507.197 183.856C507.989 184.444 508.511 185.26 508.763 186.304H506.999C506.831 185.704 506.501 185.23 506.009 184.882C505.529 184.534 504.929 184.36 504.209 184.36C503.273 184.36 502.517 184.684 501.941 185.332C501.365 185.968 501.077 186.874 501.077 188.05C501.077 189.238 501.365 190.156 501.941 190.804C502.517 191.452 503.273 191.776 504.209 191.776C504.929 191.776 505.529 191.608 506.009 191.272C506.489 190.936 506.819 190.456 506.999 189.832H508.763C508.499 190.84 507.971 191.65 507.179 192.262C506.387 192.862 505.397 193.162 504.209 193.162C503.273 193.162 502.439 192.952 501.707 192.532C500.987 192.112 500.423 191.518 500.015 190.75C499.607 189.982 499.403 189.082 499.403 188.05ZM512.587 179.68V193H510.949V179.68H512.587ZM524.378 187.69C524.378 188.002 524.36 188.332 524.324 188.68H516.44C516.5 189.652 516.83 190.414 517.43 190.966C518.042 191.506 518.78 191.776 519.644 191.776C520.352 191.776 520.94 191.614 521.408 191.29C521.888 190.954 522.224 190.51 522.416 189.958H524.18C523.916 190.906 523.388 191.68 522.596 192.28C521.804 192.868 520.82 193.162 519.644 193.162C518.708 193.162 517.868 192.952 517.124 192.532C516.392 192.112 515.816 191.518 515.396 190.75C514.976 189.97 514.766 189.07 514.766 188.05C514.766 187.03 514.97 186.136 515.378 185.368C515.786 184.6 516.356 184.012 517.088 183.604C517.832 183.184 518.684 182.974 519.644 182.974C520.58 182.974 521.408 183.178 522.128 183.586C522.848 183.994 523.4 184.558 523.784 185.278C524.18 185.986 524.378 186.79 524.378 187.69ZM522.686 187.348C522.686 186.724 522.548 186.19 522.272 185.746C521.996 185.29 521.618 184.948 521.138 184.72C520.67 184.48 520.148 184.36 519.572 184.36C518.744 184.36 518.036 184.624 517.448 185.152C516.872 185.68 516.542 186.412 516.458 187.348H522.686ZM530.032 193.162C529.276 193.162 528.598 193.036 527.998 192.784C527.398 192.52 526.924 192.16 526.576 191.704C526.228 191.236 526.036 190.702 526 190.102H527.692C527.74 190.594 527.968 190.996 528.376 191.308C528.796 191.62 529.342 191.776 530.014 191.776C530.638 191.776 531.13 191.638 531.49 191.362C531.85 191.086 532.03 190.738 532.03 190.318C532.03 189.886 531.838 189.568 531.454 189.364C531.07 189.148 530.476 188.938 529.672 188.734C528.94 188.542 528.34 188.35 527.872 188.158C527.416 187.954 527.02 187.66 526.684 187.276C526.36 186.88 526.198 186.364 526.198 185.728C526.198 185.224 526.348 184.762 526.648 184.342C526.948 183.922 527.374 183.592 527.926 183.352C528.478 183.1 529.108 182.974 529.816 182.974C530.908 182.974 531.79 183.25 532.462 183.802C533.134 184.354 533.494 185.11 533.542 186.07H531.904C531.868 185.554 531.658 185.14 531.274 184.828C530.902 184.516 530.398 184.36 529.762 184.36C529.174 184.36 528.706 184.486 528.358 184.738C528.01 184.99 527.836 185.32 527.836 185.728C527.836 186.052 527.938 186.322 528.142 186.538C528.358 186.742 528.622 186.91 528.934 187.042C529.258 187.162 529.702 187.3 530.266 187.456C530.974 187.648 531.55 187.84 531.994 188.032C532.438 188.212 532.816 188.488 533.128 188.86C533.452 189.232 533.62 189.718 533.632 190.318C533.632 190.858 533.482 191.344 533.182 191.776C532.882 192.208 532.456 192.55 531.904 192.802C531.364 193.042 530.74 193.162 530.032 193.162ZM540.131 188.032C540.131 187.024 540.335 186.142 540.743 185.386C541.151 184.618 541.709 184.024 542.417 183.604C543.137 183.184 543.935 182.974 544.811 182.974C545.675 182.974 546.425 183.16 547.061 183.532C547.697 183.904 548.171 184.372 548.483 184.936V183.136H550.139V193H548.483V191.164C548.159 191.74 547.673 192.22 547.025 192.604C546.389 192.976 545.645 193.162 544.793 193.162C543.917 193.162 543.125 192.946 542.417 192.514C541.709 192.082 541.151 191.476 540.743 190.696C540.335 189.916 540.131 189.028 540.131 188.032ZM548.483 188.05C548.483 187.306 548.333 186.658 548.033 186.106C547.733 185.554 547.325 185.134 546.809 184.846C546.305 184.546 545.747 184.396 545.135 184.396C544.523 184.396 543.965 184.54 543.461 184.828C542.957 185.116 542.555 185.536 542.255 186.088C541.955 186.64 541.805 187.288 541.805 188.032C541.805 188.788 541.955 189.448 542.255 190.012C542.555 190.564 542.957 190.99 543.461 191.29C543.965 191.578 544.523 191.722 545.135 191.722C545.747 191.722 546.305 191.578 546.809 191.29C547.325 190.99 547.733 190.564 548.033 190.012C548.333 189.448 548.483 188.794 548.483 188.05ZM557.713 182.956C558.913 182.956 559.885 183.322 560.629 184.054C561.373 184.774 561.745 185.818 561.745 187.186V193H560.125V187.42C560.125 186.436 559.879 185.686 559.387 185.17C558.895 184.642 558.223 184.378 557.371 184.378C556.507 184.378 555.817 184.648 555.301 185.188C554.797 185.728 554.545 186.514 554.545 187.546V193H552.907V183.136H554.545V184.54C554.869 184.036 555.307 183.646 555.859 183.37C556.423 183.094 557.041 182.956 557.713 182.956ZM563.809 188.032C563.809 187.024 564.013 186.142 564.421 185.386C564.829 184.618 565.387 184.024 566.095 183.604C566.815 183.184 567.619 182.974 568.507 182.974C569.275 182.974 569.989 183.154 570.649 183.514C571.309 183.862 571.813 184.324 572.161 184.9V179.68H573.817V193H572.161V191.146C571.837 191.734 571.357 192.22 570.721 192.604C570.085 192.976 569.341 193.162 568.489 193.162C567.613 193.162 566.815 192.946 566.095 192.514C565.387 192.082 564.829 191.476 564.421 190.696C564.013 189.916 563.809 189.028 563.809 188.032ZM572.161 188.05C572.161 187.306 572.011 186.658 571.711 186.106C571.411 185.554 571.003 185.134 570.487 184.846C569.983 184.546 569.425 184.396 568.813 184.396C568.201 184.396 567.643 184.54 567.139 184.828C566.635 185.116 566.233 185.536 565.933 186.088C565.633 186.64 565.483 187.288 565.483 188.032C565.483 188.788 565.633 189.448 565.933 190.012C566.233 190.564 566.635 190.99 567.139 191.29C567.643 191.578 568.201 191.722 568.813 191.722C569.425 191.722 569.983 191.578 570.487 191.29C571.003 190.99 571.411 190.564 571.711 190.012C572.011 189.448 572.161 188.794 572.161 188.05ZM580.772 188.05C580.772 187.03 580.976 186.142 581.384 185.386C581.792 184.618 582.356 184.024 583.076 183.604C583.808 183.184 584.642 182.974 585.578 182.974C586.79 182.974 587.786 183.268 588.566 183.856C589.358 184.444 589.88 185.26 590.132 186.304H588.368C588.2 185.704 587.87 185.23 587.378 184.882C586.898 184.534 586.298 184.36 585.578 184.36C584.642 184.36 583.886 184.684 583.31 185.332C582.734 185.968 582.446 186.874 582.446 188.05C582.446 189.238 582.734 190.156 583.31 190.804C583.886 191.452 584.642 191.776 585.578 191.776C586.298 191.776 586.898 191.608 587.378 191.272C587.858 190.936 588.188 190.456 588.368 189.832H590.132C589.868 190.84 589.34 191.65 588.548 192.262C587.756 192.862 586.766 193.162 585.578 193.162C584.642 193.162 583.808 192.952 583.076 192.532C582.356 192.112 581.792 191.518 581.384 190.75C580.976 189.982 580.772 189.082 580.772 188.05ZM591.706 188.032C591.706 187.024 591.91 186.142 592.318 185.386C592.726 184.618 593.284 184.024 593.992 183.604C594.712 183.184 595.51 182.974 596.386 182.974C597.25 182.974 598 183.16 598.636 183.532C599.272 183.904 599.746 184.372 600.058 184.936V183.136H601.714V193H600.058V191.164C599.734 191.74 599.248 192.22 598.6 192.604C597.964 192.976 597.22 193.162 596.368 193.162C595.492 193.162 594.7 192.946 593.992 192.514C593.284 192.082 592.726 191.476 592.318 190.696C591.91 189.916 591.706 189.028 591.706 188.032ZM600.058 188.05C600.058 187.306 599.908 186.658 599.608 186.106C599.308 185.554 598.9 185.134 598.384 184.846C597.88 184.546 597.322 184.396 596.71 184.396C596.098 184.396 595.54 184.54 595.036 184.828C594.532 185.116 594.13 185.536 593.83 186.088C593.53 186.64 593.38 187.288 593.38 188.032C593.38 188.788 593.53 189.448 593.83 190.012C594.13 190.564 594.532 190.99 595.036 191.29C595.54 191.578 596.098 191.722 596.71 191.722C597.322 191.722 597.88 191.578 598.384 191.29C598.9 190.99 599.308 190.564 599.608 190.012C599.908 189.448 600.058 188.794 600.058 188.05ZM607.974 193.162C607.218 193.162 606.54 193.036 605.94 192.784C605.34 192.52 604.866 192.16 604.518 191.704C604.17 191.236 603.978 190.702 603.942 190.102H605.634C605.682 190.594 605.91 190.996 606.318 191.308C606.738 191.62 607.284 191.776 607.956 191.776C608.58 191.776 609.072 191.638 609.432 191.362C609.792 191.086 609.972 190.738 609.972 190.318C609.972 189.886 609.78 189.568 609.396 189.364C609.012 189.148 608.418 188.938 607.614 188.734C606.882 188.542 606.282 188.35 605.814 188.158C605.358 187.954 604.962 187.66 604.626 187.276C604.302 186.88 604.14 186.364 604.14 185.728C604.14 185.224 604.29 184.762 604.59 184.342C604.89 183.922 605.316 183.592 605.868 183.352C606.42 183.1 607.05 182.974 607.758 182.974C608.85 182.974 609.732 183.25 610.404 183.802C611.076 184.354 611.436 185.11 611.484 186.07H609.846C609.81 185.554 609.6 185.14 609.216 184.828C608.844 184.516 608.34 184.36 607.704 184.36C607.116 184.36 606.648 184.486 606.3 184.738C605.952 184.99 605.778 185.32 605.778 185.728C605.778 186.052 605.88 186.322 606.084 186.538C606.3 186.742 606.564 186.91 606.876 187.042C607.2 187.162 607.644 187.3 608.208 187.456C608.916 187.648 609.492 187.84 609.936 188.032C610.38 188.212 610.758 188.488 611.07 188.86C611.394 189.232 611.562 189.718 611.574 190.318C611.574 190.858 611.424 191.344 611.124 191.776C610.824 192.208 610.398 192.55 609.846 192.802C609.306 193.042 608.682 193.162 607.974 193.162ZM622.886 187.69C622.886 188.002 622.868 188.332 622.832 188.68H614.948C615.008 189.652 615.338 190.414 615.938 190.966C616.55 191.506 617.288 191.776 618.152 191.776C618.86 191.776 619.448 191.614 619.916 191.29C620.396 190.954 620.732 190.51 620.924 189.958H622.688C622.424 190.906 621.896 191.68 621.104 192.28C620.312 192.868 619.328 193.162 618.152 193.162C617.216 193.162 616.376 192.952 615.632 192.532C614.9 192.112 614.324 191.518 613.904 190.75C613.484 189.97 613.274 189.07 613.274 188.05C613.274 187.03 613.478 186.136 613.886 185.368C614.294 184.6 614.864 184.012 615.596 183.604C616.34 183.184 617.192 182.974 618.152 182.974C619.088 182.974 619.916 183.178 620.636 183.586C621.356 183.994 621.908 184.558 622.292 185.278C622.688 185.986 622.886 186.79 622.886 187.69ZM621.194 187.348C621.194 186.724 621.056 186.19 620.78 185.746C620.504 185.29 620.126 184.948 619.646 184.72C619.178 184.48 618.656 184.36 618.08 184.36C617.252 184.36 616.544 184.624 615.956 185.152C615.38 185.68 615.05 186.412 614.966 187.348H621.194ZM633.339 193.162C632.583 193.162 631.905 193.036 631.305 192.784C630.705 192.52 630.231 192.16 629.883 191.704C629.535 191.236 629.343 190.702 629.307 190.102H630.999C631.047 190.594 631.275 190.996 631.683 191.308C632.103 191.62 632.649 191.776 633.321 191.776C633.945 191.776 634.437 191.638 634.797 191.362C635.157 191.086 635.337 190.738 635.337 190.318C635.337 189.886 635.145 189.568 634.761 189.364C634.377 189.148 633.783 188.938 632.979 188.734C632.247 188.542 631.647 188.35 631.179 188.158C630.723 187.954 630.327 187.66 629.991 187.276C629.667 186.88 629.505 186.364 629.505 185.728C629.505 185.224 629.655 184.762 629.955 184.342C630.255 183.922 630.681 183.592 631.233 183.352C631.785 183.1 632.415 182.974 633.123 182.974C634.215 182.974 635.097 183.25 635.769 183.802C636.441 184.354 636.801 185.11 636.849 186.07H635.211C635.175 185.554 634.965 185.14 634.581 184.828C634.209 184.516 633.705 184.36 633.069 184.36C632.481 184.36 632.013 184.486 631.665 184.738C631.317 184.99 631.143 185.32 631.143 185.728C631.143 186.052 631.245 186.322 631.449 186.538C631.665 186.742 631.929 186.91 632.241 187.042C632.565 187.162 633.009 187.3 633.573 187.456C634.281 187.648 634.857 187.84 635.301 188.032C635.745 188.212 636.123 188.488 636.435 188.86C636.759 189.232 636.927 189.718 636.939 190.318C636.939 190.858 636.789 191.344 636.489 191.776C636.189 192.208 635.763 192.55 635.211 192.802C634.671 193.042 634.047 193.162 633.339 193.162ZM641.249 184.486V190.3C641.249 190.78 641.351 191.122 641.555 191.326C641.759 191.518 642.113 191.614 642.617 191.614H643.823V193H642.347C641.435 193 640.751 192.79 640.295 192.37C639.839 191.95 639.611 191.26 639.611 190.3V184.486H638.333V183.136H639.611V180.652H641.249V183.136H643.823V184.486H641.249ZM654.556 183.136V193H652.918V191.542C652.606 192.046 652.168 192.442 651.604 192.73C651.052 193.006 650.44 193.144 649.768 193.144C649 193.144 648.31 192.988 647.698 192.676C647.086 192.352 646.6 191.872 646.24 191.236C645.892 190.6 645.718 189.826 645.718 188.914V183.136H647.338V188.698C647.338 189.67 647.584 190.42 648.076 190.948C648.568 191.464 649.24 191.722 650.092 191.722C650.968 191.722 651.658 191.452 652.162 190.912C652.666 190.372 652.918 189.586 652.918 188.554V183.136H654.556ZM656.71 188.032C656.71 187.024 656.914 186.142 657.322 185.386C657.73 184.618 658.288 184.024 658.996 183.604C659.716 183.184 660.52 182.974 661.408 182.974C662.176 182.974 662.89 183.154 663.55 183.514C664.21 183.862 664.714 184.324 665.062 184.9V179.68H666.718V193H665.062V191.146C664.738 191.734 664.258 192.22 663.622 192.604C662.986 192.976 662.242 193.162 661.39 193.162C660.514 193.162 659.716 192.946 658.996 192.514C658.288 192.082 657.73 191.476 657.322 190.696C656.914 189.916 656.71 189.028 656.71 188.032ZM665.062 188.05C665.062 187.306 664.912 186.658 664.612 186.106C664.312 185.554 663.904 185.134 663.388 184.846C662.884 184.546 662.326 184.396 661.714 184.396C661.102 184.396 660.544 184.54 660.04 184.828C659.536 185.116 659.134 185.536 658.834 186.088C658.534 186.64 658.384 187.288 658.384 188.032C658.384 188.788 658.534 189.448 658.834 190.012C659.134 190.564 659.536 190.99 660.04 191.29C660.544 191.578 661.102 191.722 661.714 191.722C662.326 191.722 662.884 191.578 663.388 191.29C663.904 190.99 664.312 190.564 664.612 190.012C664.912 189.448 665.062 188.794 665.062 188.05ZM670.332 181.534C670.02 181.534 669.756 181.426 669.54 181.21C669.324 180.994 669.216 180.73 669.216 180.418C669.216 180.106 669.324 179.842 669.54 179.626C669.756 179.41 670.02 179.302 670.332 179.302C670.632 179.302 670.884 179.41 671.088 179.626C671.304 179.842 671.412 180.106 671.412 180.418C671.412 180.73 671.304 180.994 671.088 181.21C670.884 181.426 670.632 181.534 670.332 181.534ZM671.124 183.136V193H669.486V183.136H671.124ZM682.915 187.69C682.915 188.002 682.897 188.332 682.861 188.68H674.977C675.037 189.652 675.367 190.414 675.967 190.966C676.579 191.506 677.317 191.776 678.181 191.776C678.889 191.776 679.477 191.614 679.945 191.29C680.425 190.954 680.761 190.51 680.953 189.958H682.717C682.453 190.906 681.925 191.68 681.133 192.28C680.341 192.868 679.357 193.162 678.181 193.162C677.245 193.162 676.405 192.952 675.661 192.532C674.929 192.112 674.353 191.518 673.933 190.75C673.513 189.97 673.303 189.07 673.303 188.05C673.303 187.03 673.507 186.136 673.915 185.368C674.323 184.6 674.893 184.012 675.625 183.604C676.369 183.184 677.221 182.974 678.181 182.974C679.117 182.974 679.945 183.178 680.665 183.586C681.385 183.994 681.937 184.558 682.321 185.278C682.717 185.986 682.915 186.79 682.915 187.69ZM681.223 187.348C681.223 186.724 681.085 186.19 680.809 185.746C680.533 185.29 680.155 184.948 679.675 184.72C679.207 184.48 678.685 184.36 678.109 184.36C677.281 184.36 676.573 184.624 675.985 185.152C675.409 185.68 675.079 186.412 674.995 187.348H681.223ZM688.569 193.162C687.813 193.162 687.135 193.036 686.535 192.784C685.935 192.52 685.461 192.16 685.113 191.704C684.765 191.236 684.573 190.702 684.537 190.102H686.229C686.277 190.594 686.505 190.996 686.913 191.308C687.333 191.62 687.879 191.776 688.551 191.776C689.175 191.776 689.667 191.638 690.027 191.362C690.387 191.086 690.567 190.738 690.567 190.318C690.567 189.886 690.375 189.568 689.991 189.364C689.607 189.148 689.013 188.938 688.209 188.734C687.477 188.542 686.877 188.35 686.409 188.158C685.953 187.954 685.557 187.66 685.221 187.276C684.897 186.88 684.735 186.364 684.735 185.728C684.735 185.224 684.885 184.762 685.185 184.342C685.485 183.922 685.911 183.592 686.463 183.352C687.015 183.1 687.645 182.974 688.353 182.974C689.445 182.974 690.327 183.25 690.999 183.802C691.671 184.354 692.031 185.11 692.079 186.07H690.441C690.405 185.554 690.195 185.14 689.811 184.828C689.439 184.516 688.935 184.36 688.299 184.36C687.711 184.36 687.243 184.486 686.895 184.738C686.547 184.99 686.373 185.32 686.373 185.728C686.373 186.052 686.475 186.322 686.679 186.538C686.895 186.742 687.159 186.91 687.471 187.042C687.795 187.162 688.239 187.3 688.803 187.456C689.511 187.648 690.087 187.84 690.531 188.032C690.975 188.212 691.353 188.488 691.665 188.86C691.989 189.232 692.157 189.718 692.169 190.318C692.169 190.858 692.019 191.344 691.719 191.776C691.419 192.208 690.993 192.55 690.441 192.802C689.901 193.042 689.277 193.162 688.569 193.162ZM703.295 184.486H701.225V193H699.587V184.486H698.309V183.136H699.587V182.434C699.587 181.33 699.869 180.526 700.433 180.022C701.009 179.506 701.927 179.248 703.187 179.248V180.616C702.467 180.616 701.957 180.76 701.657 181.048C701.369 181.324 701.225 181.786 701.225 182.434V183.136H703.295V184.486ZM706.842 184.738C707.13 184.174 707.538 183.736 708.066 183.424C708.606 183.112 709.26 182.956 710.028 182.956V184.648H709.596C707.76 184.648 706.842 185.644 706.842 187.636V193H705.204V183.136H706.842V184.738ZM716.221 193.162C715.297 193.162 714.457 192.952 713.701 192.532C712.957 192.112 712.369 191.518 711.937 190.75C711.517 189.97 711.307 189.07 711.307 188.05C711.307 187.042 711.523 186.154 711.955 185.386C712.399 184.606 712.999 184.012 713.755 183.604C714.511 183.184 715.357 182.974 716.293 182.974C717.229 182.974 718.075 183.184 718.831 183.604C719.587 184.012 720.181 184.6 720.613 185.368C721.057 186.136 721.279 187.03 721.279 188.05C721.279 189.07 721.051 189.97 720.595 190.75C720.151 191.518 719.545 192.112 718.777 192.532C718.009 192.952 717.157 193.162 716.221 193.162ZM716.221 191.722C716.809 191.722 717.361 191.584 717.877 191.308C718.393 191.032 718.807 190.618 719.119 190.066C719.443 189.514 719.605 188.842 719.605 188.05C719.605 187.258 719.449 186.586 719.137 186.034C718.825 185.482 718.417 185.074 717.913 184.81C717.409 184.534 716.863 184.396 716.275 184.396C715.675 184.396 715.123 184.534 714.619 184.81C714.127 185.074 713.731 185.482 713.431 186.034C713.131 186.586 712.981 187.258 712.981 188.05C712.981 188.854 713.125 189.532 713.413 190.084C713.713 190.636 714.109 191.05 714.601 191.326C715.093 191.59 715.633 191.722 716.221 191.722ZM735.295 182.956C736.063 182.956 736.747 183.118 737.347 183.442C737.947 183.754 738.421 184.228 738.769 184.864C739.117 185.5 739.291 186.274 739.291 187.186V193H737.671V187.42C737.671 186.436 737.425 185.686 736.933 185.17C736.453 184.642 735.799 184.378 734.971 184.378C734.119 184.378 733.441 184.654 732.937 185.206C732.433 185.746 732.181 186.532 732.181 187.564V193H730.561V187.42C730.561 186.436 730.315 185.686 729.823 185.17C729.343 184.642 728.689 184.378 727.861 184.378C727.009 184.378 726.331 184.654 725.827 185.206C725.323 185.746 725.071 186.532 725.071 187.564V193H723.433V183.136H725.071V184.558C725.395 184.042 725.827 183.646 726.367 183.37C726.919 183.094 727.525 182.956 728.185 182.956C729.013 182.956 729.745 183.142 730.381 183.514C731.017 183.886 731.491 184.432 731.803 185.152C732.079 184.456 732.535 183.916 733.171 183.532C733.807 183.148 734.515 182.956 735.295 182.956ZM755.165 184.126C755.165 185.17 754.805 186.04 754.085 186.736C753.377 187.42 752.291 187.762 750.827 187.762H748.415V193H746.777V180.454H750.827C752.243 180.454 753.317 180.796 754.049 181.48C754.793 182.164 755.165 183.046 755.165 184.126ZM750.827 186.412C751.739 186.412 752.411 186.214 752.843 185.818C753.275 185.422 753.491 184.858 753.491 184.126C753.491 182.578 752.603 181.804 750.827 181.804H748.415V186.412H750.827ZM766.2 187.69C766.2 188.002 766.182 188.332 766.146 188.68H758.262C758.322 189.652 758.652 190.414 759.252 190.966C759.864 191.506 760.602 191.776 761.466 191.776C762.174 191.776 762.762 191.614 763.23 191.29C763.71 190.954 764.046 190.51 764.238 189.958H766.002C765.738 190.906 765.21 191.68 764.418 192.28C763.626 192.868 762.642 193.162 761.466 193.162C760.53 193.162 759.69 192.952 758.946 192.532C758.214 192.112 757.638 191.518 757.218 190.75C756.798 189.97 756.588 189.07 756.588 188.05C756.588 187.03 756.792 186.136 757.2 185.368C757.608 184.6 758.178 184.012 758.91 183.604C759.654 183.184 760.506 182.974 761.466 182.974C762.402 182.974 763.23 183.178 763.95 183.586C764.67 183.994 765.222 184.558 765.606 185.278C766.002 185.986 766.2 186.79 766.2 187.69ZM764.508 187.348C764.508 186.724 764.37 186.19 764.094 185.746C763.818 185.29 763.44 184.948 762.96 184.72C762.492 184.48 761.97 184.36 761.394 184.36C760.566 184.36 759.858 184.624 759.27 185.152C758.694 185.68 758.364 186.412 758.28 187.348H764.508ZM767.751 188.05C767.751 187.03 767.955 186.142 768.363 185.386C768.771 184.618 769.335 184.024 770.055 183.604C770.787 183.184 771.621 182.974 772.557 182.974C773.769 182.974 774.765 183.268 775.545 183.856C776.337 184.444 776.859 185.26 777.111 186.304H775.347C775.179 185.704 774.849 185.23 774.357 184.882C773.877 184.534 773.277 184.36 772.557 184.36C771.621 184.36 770.865 184.684 770.289 185.332C769.713 185.968 769.425 186.874 769.425 188.05C769.425 189.238 769.713 190.156 770.289 190.804C770.865 191.452 771.621 191.776 772.557 191.776C773.277 191.776 773.877 191.608 774.357 191.272C774.837 190.936 775.167 190.456 775.347 189.832H777.111C776.847 190.84 776.319 191.65 775.527 192.262C774.735 192.862 773.745 193.162 772.557 193.162C771.621 193.162 770.787 192.952 770.055 192.532C769.335 192.112 768.771 191.518 768.363 190.75C767.955 189.982 767.751 189.082 767.751 188.05ZM783.598 193.162C782.674 193.162 781.834 192.952 781.078 192.532C780.334 192.112 779.746 191.518 779.314 190.75C778.894 189.97 778.684 189.07 778.684 188.05C778.684 187.042 778.9 186.154 779.332 185.386C779.776 184.606 780.376 184.012 781.132 183.604C781.888 183.184 782.734 182.974 783.67 182.974C784.606 182.974 785.452 183.184 786.208 183.604C786.964 184.012 787.558 184.6 787.99 185.368C788.434 186.136 788.656 187.03 788.656 188.05C788.656 189.07 788.428 189.97 787.972 190.75C787.528 191.518 786.922 192.112 786.154 192.532C785.386 192.952 784.534 193.162 783.598 193.162ZM783.598 191.722C784.186 191.722 784.738 191.584 785.254 191.308C785.77 191.032 786.184 190.618 786.496 190.066C786.82 189.514 786.982 188.842 786.982 188.05C786.982 187.258 786.826 186.586 786.514 186.034C786.202 185.482 785.794 185.074 785.29 184.81C784.786 184.534 784.24 184.396 783.652 184.396C783.052 184.396 782.5 184.534 781.996 184.81C781.504 185.074 781.108 185.482 780.808 186.034C780.508 186.586 780.358 187.258 780.358 188.05C780.358 188.854 780.502 189.532 780.79 190.084C781.09 190.636 781.486 191.05 781.978 191.326C782.47 191.59 783.01 191.722 783.598 191.722ZM790.198 188.032C790.198 187.024 790.402 186.142 790.81 185.386C791.218 184.618 791.776 184.024 792.484 183.604C793.204 183.184 794.008 182.974 794.896 182.974C795.664 182.974 796.378 183.154 797.038 183.514C797.698 183.862 798.202 184.324 798.55 184.9V179.68H800.206V193H798.55V191.146C798.226 191.734 797.746 192.22 797.11 192.604C796.474 192.976 795.73 193.162 794.878 193.162C794.002 193.162 793.204 192.946 792.484 192.514C791.776 192.082 791.218 191.476 790.81 190.696C790.402 189.916 790.198 189.028 790.198 188.032ZM798.55 188.05C798.55 187.306 798.4 186.658 798.1 186.106C797.8 185.554 797.392 185.134 796.876 184.846C796.372 184.546 795.814 184.396 795.202 184.396C794.59 184.396 794.032 184.54 793.528 184.828C793.024 185.116 792.622 185.536 792.322 186.088C792.022 186.64 791.872 187.288 791.872 188.032C791.872 188.788 792.022 189.448 792.322 190.012C792.622 190.564 793.024 190.99 793.528 191.29C794.032 191.578 794.59 191.722 795.202 191.722C795.814 191.722 796.372 191.578 796.876 191.29C797.392 190.99 797.8 190.564 798.1 190.012C798.4 189.448 798.55 188.794 798.55 188.05ZM811.974 187.69C811.974 188.002 811.956 188.332 811.92 188.68H804.036C804.096 189.652 804.426 190.414 805.026 190.966C805.638 191.506 806.376 191.776 807.24 191.776C807.948 191.776 808.536 191.614 809.004 191.29C809.484 190.954 809.82 190.51 810.012 189.958H811.776C811.512 190.906 810.984 191.68 810.192 192.28C809.4 192.868 808.416 193.162 807.24 193.162C806.304 193.162 805.464 192.952 804.72 192.532C803.988 192.112 803.412 191.518 802.992 190.75C802.572 189.97 802.362 189.07 802.362 188.05C802.362 187.03 802.566 186.136 802.974 185.368C803.382 184.6 803.952 184.012 804.684 183.604C805.428 183.184 806.28 182.974 807.24 182.974C808.176 182.974 809.004 183.178 809.724 183.586C810.444 183.994 810.996 184.558 811.38 185.278C811.776 185.986 811.974 186.79 811.974 187.69ZM810.282 187.348C810.282 186.724 810.144 186.19 809.868 185.746C809.592 185.29 809.214 184.948 808.734 184.72C808.266 184.48 807.744 184.36 807.168 184.36C806.34 184.36 805.632 184.624 805.044 185.152C804.468 185.68 804.138 186.412 804.054 187.348H810.282ZM820.933 184.486V190.3C820.933 190.78 821.035 191.122 821.239 191.326C821.443 191.518 821.797 191.614 822.301 191.614H823.507V193H822.031C821.119 193 820.435 192.79 819.979 192.37C819.523 191.95 819.295 191.26 819.295 190.3V184.486H818.017V183.136H819.295V180.652H820.933V183.136H823.507V184.486H820.933ZM834.491 187.69C834.491 188.002 834.473 188.332 834.437 188.68H826.553C826.613 189.652 826.943 190.414 827.543 190.966C828.155 191.506 828.893 191.776 829.757 191.776C830.465 191.776 831.053 191.614 831.521 191.29C832.001 190.954 832.337 190.51 832.529 189.958H834.293C834.029 190.906 833.501 191.68 832.709 192.28C831.917 192.868 830.933 193.162 829.757 193.162C828.821 193.162 827.981 192.952 827.237 192.532C826.505 192.112 825.929 191.518 825.509 190.75C825.089 189.97 824.879 189.07 824.879 188.05C824.879 187.03 825.083 186.136 825.491 185.368C825.899 184.6 826.469 184.012 827.201 183.604C827.945 183.184 828.797 182.974 829.757 182.974C830.693 182.974 831.521 183.178 832.241 183.586C832.961 183.994 833.513 184.558 833.897 185.278C834.293 185.986 834.491 186.79 834.491 187.69ZM832.799 187.348C832.799 186.724 832.661 186.19 832.385 185.746C832.109 185.29 831.731 184.948 831.251 184.72C830.783 184.48 830.261 184.36 829.685 184.36C828.857 184.36 828.149 184.624 827.561 185.152C826.985 185.68 826.655 186.412 826.571 187.348H832.799ZM836.042 188.032C836.042 187.024 836.246 186.142 836.654 185.386C837.062 184.618 837.62 184.024 838.328 183.604C839.048 183.184 839.846 182.974 840.722 182.974C841.586 182.974 842.336 183.16 842.972 183.532C843.608 183.904 844.082 184.372 844.394 184.936V183.136H846.05V193H844.394V191.164C844.07 191.74 843.584 192.22 842.936 192.604C842.3 192.976 841.556 193.162 840.704 193.162C839.828 193.162 839.036 192.946 838.328 192.514C837.62 192.082 837.062 191.476 836.654 190.696C836.246 189.916 836.042 189.028 836.042 188.032ZM844.394 188.05C844.394 187.306 844.244 186.658 843.944 186.106C843.644 185.554 843.236 185.134 842.72 184.846C842.216 184.546 841.658 184.396 841.046 184.396C840.434 184.396 839.876 184.54 839.372 184.828C838.868 185.116 838.466 185.536 838.166 186.088C837.866 186.64 837.716 187.288 837.716 188.032C837.716 188.788 837.866 189.448 838.166 190.012C838.466 190.564 838.868 190.99 839.372 191.29C839.876 191.578 840.434 191.722 841.046 191.722C841.658 191.722 842.216 191.578 842.72 191.29C843.236 190.99 843.644 190.564 843.944 190.012C844.244 189.448 844.394 188.794 844.394 188.05ZM860.68 182.956C861.448 182.956 862.132 183.118 862.732 183.442C863.332 183.754 863.806 184.228 864.154 184.864C864.502 185.5 864.676 186.274 864.676 187.186V193H863.056V187.42C863.056 186.436 862.81 185.686 862.318 185.17C861.838 184.642 861.184 184.378 860.356 184.378C859.504 184.378 858.826 184.654 858.322 185.206C857.818 185.746 857.566 186.532 857.566 187.564V193H855.946V187.42C855.946 186.436 855.7 185.686 855.208 185.17C854.728 184.642 854.074 184.378 853.246 184.378C852.394 184.378 851.716 184.654 851.212 185.206C850.708 185.746 850.456 186.532 850.456 187.564V193H848.818V183.136H850.456V184.558C850.78 184.042 851.212 183.646 851.752 183.37C852.304 183.094 852.91 182.956 853.57 182.956C854.398 182.956 855.13 183.142 855.766 183.514C856.402 183.886 856.876 184.432 857.188 185.152C857.464 184.456 857.92 183.916 858.556 183.532C859.192 183.148 859.9 182.956 860.68 182.956Z" fill="#FDFDFD"/>
<path fill-rule="evenodd" clip-rule="evenodd" d="M1128.26 114.711C1152.7 100.413 1160.87 69.0438 1146.51 44.6445C1132.14 20.2453 1100.69 12.0559 1076.25 26.353C1051.81 40.6501 1043.64 72.0197 1058.01 96.419C1072.37 120.818 1103.83 129.008 1128.26 114.711ZM1117.44 96.3321C1103.17 104.682 1084.8 99.8991 1076.41 85.6499C1068.03 71.4007 1072.8 53.0809 1087.07 44.7314C1101.34 36.3819 1119.71 41.1645 1128.1 55.4136C1136.49 69.6628 1131.72 87.9826 1117.44 96.3321Z" fill="#48C287"/>
<path d="M95.3435 288.282C65.0694 310.665 22.3826 304.267 -5.0862e-05 273.993L54.8161 233.466L95.3435 288.282Z" fill="#48C287"/>
<ellipse cx="14.5" cy="14.5" rx="14.5" ry="14.5" transform="matrix(4.38475e-08 1 1 -4.35757e-08 801 45.4658)" fill="#EC7D79"/>
<mask id="path-13-inside-1_23_752" fill="white">
<path d="M1049.39 289.42C1045.94 295.379 1041.33 300.599 1035.85 304.783C1030.37 308.967 1024.12 312.033 1017.44 313.805C1010.77 315.577 1003.81 316.021 996.964 315.112C990.117 314.203 983.515 311.958 977.535 308.505C971.555 305.053 966.315 300.461 962.113 294.991C957.911 289.521 954.831 283.28 953.046 276.626C951.262 269.971 950.81 263.032 951.715 256.206C952.62 249.38 954.865 242.799 958.322 236.841L978.89 248.716C976.995 251.983 975.764 255.591 975.267 259.334C974.771 263.077 975.019 266.881 975.997 270.53C976.976 274.179 978.665 277.6 980.969 280.6C983.273 283.599 986.146 286.117 989.425 288.01C992.703 289.903 996.323 291.134 1000.08 291.632C1003.83 292.131 1007.65 291.887 1011.31 290.915C1014.96 289.944 1018.39 288.263 1021.4 285.969C1024.41 283.675 1026.93 280.812 1028.82 277.545L1049.39 289.42Z"/>
</mask>
<path d="M1049.39 289.42C1045.94 295.379 1041.33 300.599 1035.85 304.783C1030.37 308.967 1024.12 312.033 1017.44 313.805C1010.77 315.577 1003.81 316.021 996.964 315.112C990.117 314.203 983.515 311.958 977.535 308.505C971.555 305.053 966.315 300.461 962.113 294.991C957.911 289.521 954.831 283.28 953.046 276.626C951.262 269.971 950.81 263.032 951.715 256.206C952.62 249.38 954.865 242.799 958.322 236.841L978.89 248.716C976.995 251.983 975.764 255.591 975.267 259.334C974.771 263.077 975.019 266.881 975.997 270.53C976.976 274.179 978.665 277.6 980.969 280.6C983.273 283.599 986.146 286.117 989.425 288.01C992.703 289.903 996.323 291.134 1000.08 291.632C1003.83 292.131 1007.65 291.887 1011.31 290.915C1014.96 289.944 1018.39 288.263 1021.4 285.969C1024.41 283.675 1026.93 280.812 1028.82 277.545L1049.39 289.42Z" stroke="#EC7D79" stroke-width="290" mask="url(#path-13-inside-1_23_752)"/>
<path d="M172.659 44.4529C173.92 43.2837 174.219 41.3983 173.24 40.0356C172.384 38.8438 171.455 37.7057 170.458 36.6277C163.639 29.5639 154.222 25.5621 144.274 25.502C134.326 25.4418 124.662 29.3282 117.406 36.307C113.675 39.6343 110.62 43.6481 108.417 48.118C106.214 52.5879 104.906 57.426 104.569 62.3546C104.231 67.2833 104.871 72.2056 106.451 76.8391C108.031 81.4726 110.52 85.7261 113.775 89.3556C114.758 90.4113 115.809 91.4002 116.921 92.3164C118.201 93.371 120.078 93.2023 121.324 92.0467L172.659 44.4529Z" fill="#4386D1"/>
<path fill-rule="evenodd" clip-rule="evenodd" d="M200.929 250.106C210.05 244.77 213.099 233.062 207.738 223.955C202.377 214.848 190.637 211.792 181.515 217.128C172.394 222.464 169.346 234.172 174.707 243.279C180.068 252.386 191.808 255.442 200.929 250.106ZM196.891 243.247C191.564 246.363 184.708 244.578 181.577 239.26C178.447 233.941 180.227 227.104 185.553 223.987C190.88 220.871 197.736 222.656 200.867 227.974C203.998 233.293 202.218 240.13 196.891 243.247Z" fill="#F6C050"/>
<defs>
<filter id="filter0_f_23_752" x="-57.4614" y="-552.28" width="1677.75" height="1441.97" filterUnits="userSpaceOnUse" color-interpolation-filters="sRGB">
<feFlood flood-opacity="0" result="BackgroundImageFix"/>
<feBlend mode="normal" in="SourceGraphic" in2="BackgroundImageFix" result="shape"/>
<feGaussianBlur stdDeviation="250" result="effect1_foregroundBlur_23_752"/>
</filter>
<filter id="filter1_f_23_752" x="676.929" y="-323.362" width="1563.36" height="1526.02" filterUnits="userSpaceOnUse" color-interpolation-filters="sRGB">
<feFlood flood-opacity="0" result="BackgroundImageFix"/>
<feBlend mode="normal" in="SourceGraphic" in2="BackgroundImageFix" result="shape"/>
<feGaussianBlur stdDeviation="300" result="effect1_foregroundBlur_23_752"/>
</filter>
<filter id="filter2_f_23_752" x="-303.664" y="-1119.24" width="1478.24" height="1614.99" filterUnits="userSpaceOnUse" color-interpolation-filters="sRGB">
<feFlood flood-opacity="0" result="BackgroundImageFix"/>
<feBlend mode="normal" in="SourceGraphic" in2="BackgroundImageFix" result="shape"/>
<feGaussianBlur stdDeviation="300" result="effect1_foregroundBlur_23_752"/>
</filter>
<filter id="filter3_f_23_752" x="-740.55" y="-807.791" width="1929" height="1747.71" filterUnits="userSpaceOnUse" color-interpolation-filters="sRGB">
<feFlood flood-opacity="0" result="BackgroundImageFix"/>
<feBlend mode="normal" in="SourceGraphic" in2="BackgroundImageFix" result="shape"/>
<feGaussianBlur stdDeviation="300" result="effect1_foregroundBlur_23_752"/>
</filter>
<filter id="filter4_f_23_752" x="72.7876" y="-452.953" width="1563.36" height="1526.02" filterUnits="userSpaceOnUse" color-interpolation-filters="sRGB">
<feFlood flood-opacity="0" result="BackgroundImageFix"/>
<feBlend mode="normal" in="SourceGraphic" in2="BackgroundImageFix" result="shape"/>
<feGaussianBlur stdDeviation="300" result="effect1_foregroundBlur_23_752"/>
</filter>
<filter id="filter5_f_23_752" x="-907.805" y="-1248.83" width="1478.24" height="1614.99" filterUnits="userSpaceOnUse" color-interpolation-filters="sRGB">
<feFlood flood-opacity="0" result="BackgroundImageFix"/>
<feBlend mode="normal" in="SourceGraphic" in2="BackgroundImageFix" result="shape"/>
<feGaussianBlur stdDeviation="300" result="effect1_foregroundBlur_23_752"/>
</filter>
<clipPath id="clip0_23_752">
<rect x="39" y="53.4658" width="1081" height="216" rx="40" fill="white"/>
</clipPath>
</defs>
</svg>
